<?xml version="1.0" encoding="UTF-8"?>
<svg version="1.1" xmlns="http://www.w3.org/2000/svg" width="4000" height="4000">
<path d="M0 0 C27.06801801 -0.023336 54.13603452 -0.04098264 81.20406055 -0.05181217 C93.77154183 -0.05697363 106.33901687 -0.06401349 118.90649414 -0.07543945 C129.85728941 -0.08539085 140.80808017 -0.09185452 151.75887984 -0.09408849 C157.55994487 -0.09539482 163.36099698 -0.09847579 169.16205788 -0.10573006 C174.61776899 -0.11249744 180.0734618 -0.11461548 185.52917671 -0.11310768 C187.53555145 -0.11338368 189.54192677 -0.11538456 191.54829788 -0.11920547 C194.2798054 -0.12415389 197.01124307 -0.12299399 199.74275208 -0.12025452 C200.94362016 -0.12462378 200.94362016 -0.12462378 202.1687482 -0.12908131 C205.37946635 -0.12033042 207.93114651 -0.02295116 211 1 C213.83217015 1.27157796 216.66439427 1.44385993 219.50390625 1.62109375 C223.19054516 2.02065126 226.738328 2.69967694 230.3659668 3.45385742 C232.9295365 3.98539004 235.49748415 4.48033879 238.0703125 4.96484375 C239.75520833 5.2890625 241.44010417 5.61328125 243.125 5.9375 C243.96675781 6.09412109 244.80851562 6.25074219 245.67578125 6.41210938 C250.35983309 7.32350241 254.69479872 8.50004596 259.12792969 10.26586914 C262.05599269 11.41410668 265.06319086 12.30669569 268.0625 13.25 C276.03774756 15.8586603 283.53005268 19.19164207 291 23 C291.64050293 23.32452148 292.28100586 23.64904297 292.94091797 23.98339844 C303.56370263 29.44684706 312.94623055 36.13441459 322.25146484 43.60400391 C323.81044388 44.84866212 325.39762363 46.05780926 326.98828125 47.26171875 C327.98408203 48.12216797 327.98408203 48.12216797 329 49 C329 49.66 329 50.32 329 51 C329.99 51.33 330.98 51.66 332 52 C332 52.66 332 53.32 332 54 C332.99 54.33 333.98 54.66 335 55 C335 55.66 335 56.32 335 57 C335.99 57.33 336.98 57.66 338 58 C338 58.66 338 59.32 338 60 C338.66 60 339.32 60 340 60 C345.64138099 66.09528521 350.36687599 73.12408985 355 80 C355.69996094 81.01449219 356.39992188 82.02898437 357.12109375 83.07421875 C366.72038141 97.25479375 373.36189598 112.88852475 379 129 C379.30550781 129.85980469 379.61101562 130.71960937 379.92578125 131.60546875 C383.58197263 142.19904891 385.88184716 153.01000279 388 164 C388.14970245 164.71842072 388.29940491 165.43684143 388.4536438 166.17703247 C393.98967693 192.88366366 393.37478941 219.75930256 393.20599365 246.89233398 C393.16931659 253.42738781 393.15603215 259.96252965 393.13863373 266.49765778 C393.10992962 276.33194875 393.05229991 286.16567931 393 296 C413.46 296 433.92 296 455 296 C454.98839844 289.16023438 454.97679687 282.32046875 454.96484375 275.2734375 C454.95972873 270.91666571 454.95491436 266.55989766 454.95117188 262.203125 C454.94521528 255.3017499 454.93820082 248.40038819 454.92456055 241.49902344 C454.9136223 235.92932616 454.90770018 230.35964326 454.90512276 224.78993607 C454.90328809 222.67469685 454.89970583 220.55945834 454.89426994 218.44422531 C454.85634853 203.0636175 455.24555144 188.1736289 458 173 C458.31822054 171.12791166 458.63443518 169.25548182 458.94921875 167.3828125 C459.29932679 165.31768249 459.6495889 163.2525786 460 161.1875 C460.16604736 160.1962915 460.33209473 159.20508301 460.50317383 158.18383789 C461.39272188 153.00784846 462.45368823 148.02855719 464 143 C464.30679687 141.87980469 464.61359375 140.75960938 464.9296875 139.60546875 C466.63591797 133.43624701 468.45476431 127.44893994 470.9453125 121.55078125 C471.71423128 119.69113693 472.43140981 117.80985195 473.1171875 115.91796875 C475.59933413 109.07989815 478.54042786 102.9534669 482.3515625 96.75390625 C484.04021633 94.02120823 484.04021633 94.02120823 485.41015625 91.11328125 C487.29468136 87.42294584 489.49437589 84.05374645 491.8125 80.625 C492.47572266 79.63971313 492.47572266 79.63971313 493.15234375 78.63452148 C496.30205096 73.97960881 499.44345666 69.35676559 503 65 C503.66 65 504.32 65 505 65 C505.226875 64.46375 505.45375 63.9275 505.6875 63.375 C508.73954107 57.85225901 513.07611992 53.90107118 517.82421875 49.859375 C520.11002811 47.90597239 522.33464678 45.89411058 524.5625 43.875 C534.54255837 35 534.54255837 35 538 35 C538 34.34 538 33.68 538 33 C540.20153392 31.47750075 542.38164292 30.09855079 544.6875 28.75 C545.37013916 28.34740967 546.05277832 27.94481934 546.75610352 27.5300293 C557.96548628 21.02039007 569.82409483 16.33670481 582 12 C582.96389648 11.65340332 582.96389648 11.65340332 583.94726562 11.29980469 C592.85699282 8.11905938 601.7165203 5.78876804 611 4 C611.87140625 3.81695313 612.7428125 3.63390625 613.640625 3.4453125 C616.08890974 2.93196247 618.54122121 2.46052087 621 2 C621.91573792 1.8280864 622.83147583 1.65617279 623.77496338 1.47904968 C632.44203625 -0.00580511 640.89598584 -0.27864869 649.671875 -0.23046875 C651.13063516 -0.22927315 652.58939611 -0.22882459 654.04815674 -0.2290802 C657.07349613 -0.22753153 660.09871445 -0.21935818 663.12402344 -0.20581055 C667.00785862 -0.18863908 670.89156386 -0.18500225 674.77543259 -0.18575573 C677.7727381 -0.18548479 680.77001505 -0.18001892 683.7673111 -0.17275429 C685.20110102 -0.16956967 686.63489417 -0.16760069 688.06868744 -0.16686058 C690.05719672 -0.16470518 692.04569397 -0.15517996 694.03417969 -0.14526367 C695.73075714 -0.13954597 695.73075714 -0.13954597 697.46160889 -0.13371277 C700 0 700 0 701 1 C701.09676414 3.02494622 701.12186986 5.05332542 701.12025452 7.08058167 C701.12110894 7.72255381 701.12196337 8.36452596 701.12284368 9.0259518 C701.12450021 11.19254054 701.11897433 13.35905307 701.11352539 15.52563477 C701.11324353 17.07256061 701.11340123 18.61948659 701.1139679 20.16641235 C701.11425592 24.37904032 701.10835849 28.59164006 701.10139394 32.80426145 C701.09516112 37.20185788 701.09455666 41.59945489 701.09336853 45.99705505 C701.090255 54.33040513 701.08204132 62.66374215 701.07201904 70.99708647 C701.06085857 80.48181254 701.05534762 89.96653922 701.05032361 99.45127022 C701.03985873 118.96752089 701.02225887 138.4837594 701 158 C699.48031616 157.98428955 699.48031616 157.98428955 697.92993164 157.96826172 C694.13358156 157.93177559 690.33724664 157.90899651 686.54077148 157.89013672 C684.90467717 157.88014383 683.26860041 157.86654493 681.63256836 157.84912109 C669.18362662 157.68578896 669.18362662 157.68578896 657 160 C655.91074219 160.26039063 654.82148437 160.52078125 653.69921875 160.7890625 C642.53096836 163.88894004 632.79772916 169.43282563 626 179 C625.319375 179.9075 624.63875 180.815 623.9375 181.75 C619.93200687 188.4688917 616.84610382 195.2632059 615.39453125 202.96875 C615 205 615 205 614 208.25 C611.04800326 219.31998779 610.6721404 230.42411834 610.5859375 241.80078125 C610.56894715 243.19739806 610.55112466 244.594005 610.5324707 245.99060059 C610.46996061 251.09778758 610.42339124 256.20515971 610.375 261.3125 C610.25125 272.759375 610.1275 284.20625 610 296 C680.29 295.505 680.29 295.505 752 295 C751.98839844 274.14941406 751.97679687 253.29882812 751.96484375 231.81640625 C751.95973754 218.65039054 751.95487647 205.48437544 751.95117188 192.31835938 C751.94921386 185.40584308 751.94719334 178.4933268 751.94506836 171.58081055 C751.94480461 170.71438209 751.94454086 169.84795362 751.94426912 168.95526975 C751.93991415 154.94864096 751.93202723 140.94201625 751.9228472 126.93538988 C751.9135114 112.57179769 751.90794455 98.20820764 751.90591151 83.84461254 C751.90453612 74.97418135 751.90018472 66.1037617 751.89208353 57.23333406 C751.88681698 51.15903198 751.8851955 45.08473591 751.88649862 39.01043171 C751.88714215 35.50051306 751.8861229 31.99061464 751.88079453 28.48069954 C751.87507313 24.68439609 751.87699895 20.88811944 751.87974548 17.09181213 C751.87683264 15.97024092 751.8739198 14.8486697 751.87091869 13.69311148 C751.87290974 12.68441911 751.87490079 11.67572674 751.87695217 10.63646793 C751.87638259 9.32016741 751.87638259 9.32016741 751.8758015 7.97727495 C752 6 752 6 753 5 C754.99961455 4.90327305 757.00270193 4.8781297 759.00465393 4.87974548 C760.3074936 4.87836799 761.61033327 4.87699049 762.95265293 4.87557125 C764.41578251 4.87911853 765.87891186 4.88275643 767.34204102 4.88647461 C768.8940706 4.88678071 770.44610032 4.88664785 771.99812984 4.88610935 C776.16875551 4.88588283 780.3393527 4.89169466 784.50997162 4.89871979 C788.41806634 4.90439868 792.326154 4.90468203 796.23425293 4.90539551 C807.67700575 4.9106508 819.11975323 4.92461184 830.5625 4.9375 C856.116875 4.958125 881.67125 4.97875 908 5 C908 101.03 908 197.06 908 296 C1011.38603806 296.02876063 1011.38603806 296.02876063 1114.77207685 296.04816496 C1129.84310751 296.05020539 1144.91413816 296.05229289 1159.9851688 296.05452599 C1161.8072584 296.05479585 1163.629348 296.05506422 1165.45143761 296.05533109 C1194.30123012 296.05956873 1223.15102063 296.06705004 1252.00081194 296.07629722 C1281.74719242 296.08581406 1311.49357179 296.09190466 1341.23995377 296.09391499 C1345.47858033 296.09420298 1349.71720688 296.09452862 1353.95583344 296.09487724 C1354.78974224 296.09494467 1355.62365105 296.09501209 1356.48282983 296.09508156 C1368.89013806 296.09617438 1381.2974431 296.10015932 1393.70475006 296.10573006 C1412.38422222 296.11396013 1431.06369028 296.11774436 1449.74316406 296.11352539 C1450.47528884 296.113369 1451.20741362 296.11321261 1451.96172399 296.11305148 C1500.97927042 296.10166749 1549.98859142 295.81617873 1599 295 C1598.99092851 294.2404912 1598.98185702 293.48098241 1598.97251064 292.69845819 C1598.93104386 289.22105198 1598.88975305 285.74364369 1598.84846497 282.26623535 C1598.83419228 281.07151737 1598.8199196 279.87679939 1598.80521441 278.64587784 C1598.73249422 272.5107073 1598.6656414 266.37560019 1598.61206055 260.24023438 C1598.45168563 247.85198221 1598.0313334 236.05271508 1595 224 C1594.77771729 223.06736328 1594.55543457 222.13472656 1594.32641602 221.17382812 C1591.35760705 209.33380049 1585.07985251 198.16545041 1576 190 C1574.62714844 189.18595703 1574.62714844 189.18595703 1573.2265625 188.35546875 C1572.49179688 187.90816406 1571.75703125 187.46085937 1571 187 C1571 186.34 1571 185.68 1571 185 C1570.26265625 184.87367188 1569.5253125 184.74734375 1568.765625 184.6171875 C1566.17445494 184.03893203 1564.14666347 183.23712082 1561.75 182.125 C1549.35536256 177.18157837 1537.07100522 176.81587942 1523.89453125 176.921875 C1522.5415472 176.92816008 1521.18856031 176.9338608 1519.83557129 176.93896484 C1516.55697338 176.95358512 1513.27852471 176.97407319 1510 177 C1509.97667275 156.54701526 1509.95902168 136.09403321 1509.94818783 115.64103794 C1509.9430245 106.14504617 1509.93598111 96.64906265 1509.92456055 87.15307617 C1509.91461483 78.87947155 1509.90814684 70.60587289 1509.90591151 62.33226246 C1509.90460421 57.9486641 1509.90151715 53.56508284 1509.89426994 49.18148994 C1509.88751149 45.060365 1509.88538268 40.93926427 1509.88689232 36.81813431 C1509.88661591 35.30113659 1509.88460975 33.7841381 1509.88079453 32.26714516 C1509.87585999 30.20492699 1509.8770008 28.14280174 1509.87974548 26.08058167 C1509.87882369 24.92373147 1509.8779019 23.76688128 1509.87695217 22.57497501 C1510 20 1510 20 1511 19 C1512.72548172 18.89581409 1514.4552267 18.86146071 1516.18383789 18.85473633 C1517.29332291 18.84835648 1518.40280792 18.84197662 1519.5459137 18.83540344 C1521.36590126 18.83373421 1521.36590126 18.83373421 1523.22265625 18.83203125 C1524.47066513 18.82870285 1525.71867401 18.82537445 1527.00450134 18.82194519 C1529.66197234 18.81686525 1532.3193413 18.81410626 1534.97680664 18.81469727 C1537.67381616 18.81477773 1540.37065298 18.80797184 1543.06762695 18.79418945 C1571.32358288 18.65997758 1571.32358288 18.65997758 1585 21 C1586.75128069 21.26056052 1588.50258017 21.52099476 1590.25390625 21.78125 C1591.69065105 22.01753164 1593.12688518 22.25694707 1594.5625 22.5 C1595.29017578 22.61730469 1596.01785156 22.73460937 1596.76757812 22.85546875 C1601.28979017 23.6112023 1605.60396708 24.67085231 1610 26 C1611.3380728 26.38444815 1612.67663731 26.76718801 1614.015625 27.1484375 C1641.16246045 34.97644276 1667.28873603 46.65517505 1688.07421875 66.25 C1689.88790585 68.05668258 1689.88790585 68.05668258 1692 69 C1692 69.66 1692 70.32 1692 71 C1692.66 71 1693.32 71 1694 71 C1695.36176922 72.64351457 1696.68962066 74.31522656 1698 76 C1698.78375 76.78375 1699.5675 77.5675 1700.375 78.375 C1702.43390751 80.43390751 1704.39111252 82.50389964 1706.3125 84.6875 C1707.08013672 85.55955078 1707.08013672 85.55955078 1707.86328125 86.44921875 C1709 88 1709 88 1709 90 C1709.66 90 1710.32 90 1711 90 C1712.515625 92.08984375 1712.515625 92.08984375 1714.25 94.9375 C1716.40632745 98.43653032 1718.58551283 101.87989235 1720.9375 105.25 C1736.31506937 128.43839826 1744.73729328 155.88422454 1750 183 C1750.15976318 183.72034424 1750.31952637 184.44068848 1750.48413086 185.18286133 C1751.9288721 191.8703887 1752.57580193 198.49449481 1753.0625 205.3125 C1753.21737847 207.41295927 1753.3748369 209.51323025 1753.53515625 211.61328125 C1753.600979 212.52891846 1753.66680176 213.44455566 1753.73461914 214.38793945 C1753.93669326 216.94022333 1753.93669326 216.94022333 1754.50711823 219.14894199 C1755.14651683 222.84752169 1755.15004748 226.48811502 1755.15148926 230.22898865 C1755.15572167 231.05559103 1755.15995408 231.8821934 1755.16431475 232.73384434 C1755.17733493 235.50672816 1755.18336647 238.27958317 1755.18945312 241.05249023 C1755.19740186 243.0453407 1755.20579032 245.03818946 1755.21458435 247.03103638 C1755.2326843 251.34365267 1755.24769109 255.65626504 1755.26036072 259.96890068 C1755.28082153 266.90735497 1755.30848093 273.84576992 1755.33703613 280.78419495 C1755.39216303 294.42049996 1755.4398799 308.05682631 1755.48697662 321.69316101 C1755.55841263 342.23166034 1755.63536764 362.77013945 1755.71875 383.30859375 C1755.72358524 384.50072212 1755.72842049 385.69285048 1755.73340225 386.92110395 C1755.88050427 422.84741056 1756.10255261 458.77256141 1756.43804359 494.6976254 C1756.46838094 497.99504245 1756.49725598 501.29246935 1756.52574158 504.58990288 C1756.57055227 509.73760815 1756.61982875 514.88525214 1756.67263031 520.0328815 C1756.69119508 521.89439079 1756.70848585 523.75591337 1756.72429657 525.61744809 C1756.81738257 536.38994284 1757.16113637 547.11307984 1757.77464867 557.86854076 C1758.03633678 562.50192192 1758.16777446 567.12858777 1758.20532227 571.76904297 C1758.21522186 572.58803574 1758.22512146 573.4070285 1758.23532104 574.25083923 C1758.26638385 576.91459559 1758.29164785 579.57836565 1758.31640625 582.2421875 C1758.33718815 584.21184507 1758.35818602 586.18150038 1758.37937927 588.15115356 C1758.42314634 592.30810389 1758.46395845 596.46507007 1758.50268555 600.62207031 C1758.540485 604.65825487 1758.58183716 608.69436766 1758.62768555 612.73046875 C1759.16258461 659.81860652 1759.04378239 706.90963117 1759 754 C1728.26452522 754.0456826 1697.52905825 754.08104894 1666.7935576 754.10213066 C1663.16014186 754.1046319 1659.52672619 754.10722056 1655.89331055 754.10986328 C1654.80834652 754.11065021 1654.80834652 754.11065021 1653.70146402 754.11145304 C1642.00905625 754.12014181 1630.31666826 754.13590333 1618.6242722 754.15430559 C1606.61556888 754.17304723 1594.60687588 754.18412572 1582.59815854 754.18817699 C1575.85778702 754.19066848 1569.11745666 754.19663162 1562.37709999 754.21146011 C1556.02670026 754.22508265 1549.67636357 754.22921319 1543.32595062 754.22621536 C1541.00126235 754.22676344 1538.67657187 754.23071291 1536.35189629 754.23841095 C1525.03273639 754.27404024 1514.13123444 754.26089678 1503 752 C1501.58444388 751.77921648 1500.16784123 751.56497349 1498.75 751.359375 C1483.00569073 748.80092474 1467.51329143 744.69671935 1453 738 C1451.25039767 737.22826449 1449.50042681 736.45736364 1447.75 735.6875 C1446.49933701 735.12647564 1445.24905395 734.56459762 1444 734 C1444 733.34 1444 732.68 1444 732 C1442.93265625 731.85884766 1442.93265625 731.85884766 1441.84375 731.71484375 C1436.20298283 730.29690365 1431.68118187 726.33752221 1427 723 C1425.98550781 722.2884375 1424.97101563 721.576875 1423.92578125 720.84375 C1382.57902779 690.54700719 1365.80025691 643.68472506 1357.98828125 594.7890625 C1356.90696668 587.60840069 1356.04290554 580.41809957 1355.375 573.1875 C1355.27644714 572.12305664 1355.27644714 572.12305664 1355.17590332 571.03710938 C1353.77453367 555.21068733 1353.72870161 539.37846134 1353.75 523.5 C1353.75086609 522.26841156 1353.75173218 521.03682312 1353.75262451 519.76791382 C1353.75908919 516.20976332 1353.77528679 512.65183864 1353.796875 509.09375 C1353.8012558 508.03658279 1353.8056366 506.97941559 1353.81015015 505.89021301 C1353.96795113 489.0961466 1353.96795113 489.0961466 1356 483 C1407.81 483 1459.62 483 1513 483 C1512 502 1512 502 1511 510 C1510.27225847 524.67612086 1510.61924501 539.51874563 1512.1875 554.125 C1512.28836914 555.14706543 1512.38923828 556.16913086 1512.49316406 557.22216797 C1513.87748655 568.58219439 1518.08910243 580.16560763 1527.03125 587.71484375 C1538.28210189 595.81624942 1551.20722133 596.16505854 1564.59765625 596.09765625 C1565.67252792 596.0962413 1566.7473996 596.09482635 1567.85484314 596.09336853 C1571.25742483 596.08781151 1574.65993851 596.07526713 1578.0625 596.0625 C1580.3821605 596.05747944 1582.70182204 596.05291751 1585.02148438 596.04882812 C1590.68101243 596.03785619 1596.34050135 596.0211614 1602 596 C1601.89053165 587.26082144 1601.77758464 578.52169575 1601.66066074 569.78261375 C1601.60641783 565.72097965 1601.55320217 561.65933854 1601.50268555 557.59765625 C1601.44389186 552.88536976 1601.38175161 548.1731377 1601.31640625 543.4609375 C1601.30008589 542.27913029 1601.30008589 542.27913029 1601.28343582 541.07344818 C1601.13752858 530.82525217 1600.86255565 520.59387154 1600.46484375 510.3515625 C1599.87613509 490.90933548 1600 471.451138 1600 452 C1371.64 451.67 1143.28 451.34 908 451 C902.35679822 507.86778883 902.35679822 507.86778883 923 571 C945.04211489 588.29762379 987.99576902 581.62492445 1009 582 C1009 633.48 1009 684.96 1009 738 C993.386875 738.020625 977.77375 738.04125 961.6875 738.0625 C956.77576904 738.071604 951.86403809 738.08070801 946.8034668 738.09008789 C940.75939941 738.09460449 940.75939941 738.09460449 937.92097473 738.09544373 C935.95812248 738.09696927 933.99527111 738.10046529 932.03242493 738.10557556 C918.39741793 738.13926903 905.3691774 737.90634291 892 735 C890.98679687 734.80664062 889.97359375 734.61328125 888.9296875 734.4140625 C874.80054267 731.62757222 860.8976343 727.45878441 848 721 C847.05253906 720.56171875 846.10507813 720.1234375 845.12890625 719.671875 C837.13847761 715.88966951 830.1406988 711.16394438 823 706 C821.92234375 705.24589844 820.8446875 704.49179688 819.734375 703.71484375 C818.72890625 703.00457031 817.7234375 702.29429687 816.6875 701.5625 C815.78386719 700.92441406 814.88023437 700.28632813 813.94921875 699.62890625 C813.30597656 699.09136719 812.66273438 698.55382813 812 698 C812 697.34 812 696.68 812 696 C811.4534375 695.77441406 810.906875 695.54882812 810.34375 695.31640625 C795.85607969 687.17916476 785.15382108 668.3532079 778 654 C777.36191406 652.81277344 777.36191406 652.81277344 776.7109375 651.6015625 C773.05180116 644.66491753 770.51537391 637.41511267 768 630 C767.71125 629.18402344 767.4225 628.36804687 767.125 627.52734375 C765.28008162 622.23281235 763.9300211 616.86331564 762.6484375 611.40625 C762.23236624 609.06611203 762.23236624 609.06611203 761 608 C760.64602072 606.02782972 760.3426225 604.04650815 760.0625 602.0625 C759.34781351 597.20792587 758.5238495 592.41048615 757.53125 587.60620117 C755.87111638 579.46193354 754.61239672 571.41155797 753.9375 563.125 C753.82051758 561.81789063 753.82051758 561.81789063 753.70117188 560.484375 C753.43343302 557.32461394 753.21145788 554.16404442 753 551 C752.95483246 550.36047394 752.90966492 549.72094788 752.86312866 549.06204224 C751.58055409 530.20463252 751.88376853 511.28941607 751.93133545 492.40020752 C751.94171233 487.83386707 751.94616332 483.26752081 751.95117188 478.70117188 C751.96177796 469.80076634 751.97876079 460.90038609 752 452 C750.85742737 451.98969254 749.71485474 451.97938507 748.53765869 451.96876526 C737.54365679 451.86918673 726.54968905 451.76635219 715.55574417 451.66066074 C709.90940867 451.60647484 704.26306819 451.55327407 698.61669922 451.50268555 C668.73731057 451.23409215 638.87082116 450.77117962 609 450 C609.00222061 450.75960526 609.00444122 451.51921051 609.00672913 452.30183411 C609.02698105 459.5509738 609.04209871 466.80009928 609.05181217 474.04926014 C609.05697421 477.77381942 609.06394618 481.49835484 609.07543945 485.22290039 C609.08651116 488.8344972 609.09232671 492.44607144 609.09487724 496.05768394 C609.09755475 498.06831483 609.10532531 500.07893696 609.11329651 502.08955383 C609.11370695 509.04461855 608.92160811 515.93959537 608.51048279 522.88023376 C607.99029628 532.23833892 607.80063504 541.57750783 607.71875 550.94824219 C607.70087402 552.64769866 607.68263328 554.34715132 607.6640625 556.04660034 C607.62524814 559.66449865 607.58885744 563.28240967 607.55444336 566.90035248 C607.49968153 572.64628407 607.43872403 578.39214057 607.37695312 584.13800049 C607.24660457 596.34195334 607.12302848 608.54597151 607 620.75 C606.86712704 633.91966963 606.73288018 647.0893196 606.59148407 660.25890088 C606.54050687 665.02406929 606.49109958 669.78924256 606.44555664 674.55446625 C606.11859012 708.6983794 606.11859012 708.6983794 605.53125 722.81738281 C605.49390747 723.73627666 605.45656494 724.65517052 605.41809082 725.60190964 C605.25786156 728.93763955 605.06140653 731.8157804 604 735 C553.18 735 502.36 735 450 735 C449.979375 721.078125 449.95875 707.15625 449.9375 692.8125 C449.928396 688.46167236 449.91929199 684.11084473 449.90991211 679.62817383 C449.90539551 674.20056152 449.90539551 674.20056152 449.90455627 671.63749695 C449.90304841 669.89591718 449.89959142 668.15433826 449.89442444 666.4127655 C449.86475684 655.85975519 450.06965073 645.36345733 450.62533379 634.82461739 C451.11117064 625.39924552 451.22757873 615.97912487 451.31640625 606.54296875 C451.33720412 604.61472316 451.35824816 602.68648021 451.3795166 600.75823975 C451.43477552 595.62732974 451.48444579 590.49638108 451.53242874 585.36539841 C451.56267071 582.16945904 451.594469 578.97353851 451.62667847 575.77761841 C452.04633986 533.85140128 452.11832738 491.92787271 452 450 C451.45035583 450.00222061 450.90071167 450.00444122 450.33441162 450.00672913 C444.55823422 450.02903686 438.78206928 450.0440117 433.00585938 450.05493164 C430.85676577 450.05992728 428.7076755 450.06672607 426.55859375 450.07543945 C403.63799707 450.16597155 403.63799707 450.16597155 394 449 C394.06638672 449.87769043 394.13277344 450.75538086 394.20117188 451.65966797 C395.15277343 465.73399391 395.29876066 479.81651569 395.47232056 493.91756439 C395.50033794 496.15195107 395.53003821 498.38630919 395.56030273 500.6206665 C395.84380548 521.553897 396.05824004 542.48762077 396.25 563.421875 C396.27119013 565.71259571 396.29238969 568.00331633 396.31359863 570.29403687 C396.40734919 580.46948331 396.498898 590.64492996 396.58090973 600.82047844 C396.62419986 606.12773925 396.67053297 611.43496929 396.71875 616.7421875 C396.72809067 617.77648518 396.73743134 618.81078285 396.74705505 619.87642288 C396.85945998 631.82535113 397.08136542 643.75395228 397.53125 655.6953125 C398.51986413 682.1017978 398.08340217 708.5792897 398 735 C370.82665089 735.02338282 343.65330329 735.04100562 316.47994614 735.05181217 C303.86227837 735.05696369 291.24461687 735.06398458 278.62695312 735.07543945 C267.62662955 735.08542125 256.6263105 735.09186175 245.62598252 735.09408849 C239.8039508 735.09538966 233.98193204 735.09843789 228.15990448 735.10573006 C222.67379662 735.11254545 217.187707 735.11460576 211.70159531 735.11310768 C209.69416327 735.11338153 207.68673058 735.11535378 205.67930222 735.11920547 C192.36779578 735.1434818 179.38861669 734.96073478 166.3125 732.1875 C165.46453857 732.01226807 164.61657715 731.83703613 163.74291992 731.65649414 C139.69123167 726.6299313 139.69123167 726.6299313 130 723 C129.04351563 722.66484375 128.08703125 722.3296875 127.1015625 721.984375 C118.88699656 719.00087647 111.36286619 715.19164697 103.74414062 710.96240234 C102.14534971 710.08020277 100.53415833 709.22057404 98.921875 708.36328125 C86.72399649 701.8725107 86.72399649 701.8725107 82 698 C82 697.34 82 696.68 82 696 C81.45472656 695.76152344 80.90945313 695.52304688 80.34765625 695.27734375 C77.40886317 693.67836648 75.01295103 691.69644514 72.4375 689.5625 C71.48746094 688.78003906 70.53742188 687.99757813 69.55859375 687.19140625 C65.44284041 683.66631064 65.44284041 683.66631064 64 682 C64 681.34 64 680.68 64 680 C63.01 679.67 62.02 679.34 61 679 C61 678.34 61 677.68 61 677 C60.01 676.67 59.02 676.34 58 676 C56.15728918 673.89027217 54.44238676 671.78725817 52.75 669.5625 C52.25838379 668.9236084 51.76676758 668.2847168 51.26025391 667.62646484 C49.83045876 665.75810527 48.4131836 663.88094215 47 662 C46.35289063 661.14535156 45.70578125 660.29070313 45.0390625 659.41015625 C32.59866687 642.32651436 22.39352589 621.78783613 16.9375 601.44140625 C16.01312941 598.04819589 14.9594393 594.72001682 13.875 591.375 C12.2725223 586.22328458 11.22521368 581.15954608 10.4296875 575.828125 C10.03271948 573.21535367 9.54220734 570.64841191 9 568.0625 C5.39910191 550.25648425 4.85067199 532.69107253 4.81054688 514.60009766 C4.80258516 512.58921137 4.79419575 510.57832673 4.78541565 508.56744385 C4.76747933 504.26411048 4.75242087 499.96078047 4.73963928 495.65742874 C4.71922724 488.82753439 4.69159869 481.9976803 4.66296387 475.16781616 C4.60311511 460.65356322 4.55122244 446.13928554 4.5 431.625 C4.44470401 415.9836537 4.38784959 400.34231982 4.32245111 384.70101202 C4.29898282 379.03585514 4.27739181 373.37070461 4.26036072 367.70552444 C4.24823605 339.59530852 4.24823605 339.59530852 3.37763214 311.50333595 C2.60164642 294.72500973 2.67366561 277.90710041 2.52767944 261.11419678 C2.48064334 255.82219403 2.42860301 250.53024063 2.37695312 245.23828125 C2.23583427 230.69027249 2.10223298 216.14219668 1.96875 201.59411621 C1.84613062 188.23866198 1.7218335 174.8832286 1.59148407 161.52784729 C1.54051915 156.28762597 1.49111202 151.04740026 1.44555664 145.80712891 C1.29661158 120.61598044 1.29661158 120.61598044 0.47265625 95.44140625 C-0.37664914 77.91497029 -0.11043997 60.34965094 -0.06866455 42.80773926 C-0.05826621 37.96623175 -0.05383228 33.12471868 -0.04882812 28.28320312 C-0.03823894 18.8554546 -0.02126893 9.42773008 0 0 Z M157 158 C156.94276463 173.6076439 157.06407611 189.20208396 157.37011719 204.80661011 C157.85782681 230.18186809 158.20944994 255.55930323 158.5 280.9375 C158.5155896 282.27722178 158.5155896 282.27722178 158.53149414 283.64400864 C158.87190012 313.00144681 159.05385735 342.35884786 159.18798447 371.71781349 C159.21470076 377.54899734 159.24287539 383.38017361 159.27127075 389.21134949 C159.29026593 393.13381937 159.30919974 397.05628955 159.328125 400.97875977 C159.33284813 401.95388578 159.33757125 402.9290118 159.34243751 403.93368709 C159.3992757 415.71961838 159.44920118 427.5055397 159.48877901 439.29154187 C159.51443727 446.80669542 159.54691412 454.32180124 159.58426291 461.83690566 C159.60584348 466.23942841 159.62411456 470.64190347 159.6337719 475.04446983 C159.12011335 522.09589738 159.12011335 522.09589738 180 563 C182.65167287 565.42791213 182.65167287 565.42791213 186 566 C186 566.66 186 567.32 186 568 C187.65 568.33 189.3 568.66 191 569 C191 569.66 191 570.32 191 571 C206.04226849 577.03121066 221.70485121 580.53389542 238 579 C238.99 578.34 239.98 577.68 241 577 C241.42035607 574.13023881 241.42035607 574.13023881 241.29156494 570.69491577 C241.28666668 570.04043791 241.28176841 569.38596006 241.27672172 568.71164954 C241.25650111 566.50705744 241.21458912 564.30340325 241.17285156 562.09912109 C241.15392357 560.52203846 241.13631614 558.9449395 241.11993408 557.36782837 C241.07140975 553.06868799 241.00403909 548.77002251 240.9332552 544.47119856 C240.86189804 539.95551299 240.80713607 535.43962551 240.75042725 530.92373657 C240.65253293 523.31536674 240.54347707 515.70722443 240.42675781 508.09912109 C240.26344681 497.45177487 240.12114344 486.80422503 239.98268175 476.1565311 C239.88507181 468.71760781 239.78198495 461.27875872 239.67811871 453.83992052 C239.65324835 452.05460369 239.6285559 450.26928437 239.60404682 448.48396254 C239.317928 424.75394389 239.317928 424.75394389 238.47753906 401.03930664 C237.70891913 385.01781112 237.78949971 368.9751615 237.72960854 352.93884206 C237.71115447 348.32268881 237.686839 343.70656669 237.66296387 339.09043884 C237.59843588 326.42080971 237.54232734 313.75114638 237.48697662 301.0814743 C237.4359796 289.41037662 237.38312263 277.73929683 237.32245111 266.06824487 C237.29426803 260.59639591 237.27061868 255.12455251 237.25052643 249.65266812 C237.23708767 246.25321808 237.21968214 242.85379659 237.20121574 239.4543705 C237.19350159 237.88589452 237.18741393 236.31740952 237.18312263 234.74892044 C237.13811401 218.9115899 235.50040077 205.13273268 229.0859375 190.49609375 C228 188 228 188 227 185 C226.34 185 225.68 185 225 185 C224.91363281 184.43796875 224.82726563 183.8759375 224.73828125 183.296875 C221.82457572 174.23201337 211.01912639 167.17884512 203 163 C198.401324 161.25406199 193.80316708 160.04178281 189 159 C188.03578125 158.77570313 187.0715625 158.55140625 186.078125 158.3203125 C178.36808766 156.76552596 164.26696606 154.36651697 157 158 Z " fill="#00CCFF" transform="translate(1098,1526)"/>
<path d="M0 0 C28.38912693 -0.0233303 56.77825243 -0.04097982 85.16738701 -0.05181217 C98.34808548 -0.05697485 111.528778 -0.06401701 124.70947266 -0.07543945 C136.1938614 -0.08538715 147.67824585 -0.09185363 159.16263878 -0.09408849 C165.24704084 -0.09539545 171.33143058 -0.09848039 177.4158287 -0.10573006 C183.13664707 -0.11249161 188.85744798 -0.11461668 194.57826996 -0.11310768 C196.68343068 -0.11338395 198.78859196 -0.11538827 200.89374924 -0.11920547 C203.75697728 -0.12414481 206.62013849 -0.12299737 209.48336792 -0.12025452 C210.32576897 -0.12316736 211.16817001 -0.1260802 212.03609836 -0.12908131 C217.77175758 -0.11412121 217.77175758 -0.11412121 220 1 C222.10323773 1.27490452 224.20674357 1.44433621 226.3203125 1.62109375 C229.22524006 2.03184881 232.01625624 2.71904013 234.85449219 3.45385742 C236.98073051 3.99509492 239.1125187 4.4873722 241.25390625 4.96484375 C241.96353516 5.12533203 242.67316406 5.28582031 243.40429688 5.45117188 C244.84598594 5.77604118 246.28871268 6.0963386 247.73242188 6.41210938 C252.42496476 7.48383664 256.58226727 9.04668404 261 11 C263.32723048 11.74841617 265.6609 12.47704967 268 13.1875 C276.23183627 15.81842092 283.52892021 19.70412912 291 24 C291.928125 24.52851562 292.85625 25.05703125 293.8125 25.6015625 C299.05686863 28.66624042 304.03276713 32.04405619 308.96875 35.58203125 C310.9363036 37.02868124 310.9363036 37.02868124 313 38 C313 38.66 313 39.32 313 40 C313.84111328 40.36544922 313.84111328 40.36544922 314.69921875 40.73828125 C321.76938314 44.61546817 328.81589927 51.80311138 334 58 C334 58.66 334 59.32 334 60 C334.66 60 335.32 60 336 60 C337.7265625 61.8984375 337.7265625 61.8984375 339.625 64.375 C340.25664063 65.18710938 340.88828125 65.99921875 341.5390625 66.8359375 C343 69 343 69 343 71 C343.66 71 344.32 71 345 71 C346.4453125 72.94921875 346.4453125 72.94921875 348.125 75.6875 C348.74503906 76.69425781 349.36507813 77.70101563 350.00390625 78.73828125 C350.66261719 79.81464844 351.32132813 80.89101562 352 82 C352.66902344 83.04542969 353.33804687 84.09085938 354.02734375 85.16796875 C363.28948709 99.76340001 369.54994375 115.64983126 375 132 C375.33 88.44 375.66 44.88 376 0 C394.005625 -0.0309375 394.005625 -0.0309375 412.375 -0.0625 C416.16790527 -0.071604 419.96081055 -0.08070801 423.86865234 -0.09008789 C428.4934082 -0.09460449 428.4934082 -0.09460449 430.65713501 -0.09544373 C432.17121677 -0.09698124 433.68529729 -0.10050226 435.19937134 -0.10557556 C437.49019505 -0.11286912 439.78094381 -0.11390687 442.07177734 -0.11352539 C443.36417328 -0.115746 444.65656921 -0.11796661 445.98812866 -0.12025452 C449 0 449 0 451 1 C453.07054646 1.27578103 455.14151844 1.44421585 457.22265625 1.62109375 C488.84249581 5.93491152 524.00565029 19.54840412 548 41 C548 41.66 548 42.32 548 43 C548.556875 43.2475 549.11375 43.495 549.6875 43.75 C556.59517985 47.483881 561.3302598 53.62356386 566.125 59.6875 C567.98128836 62.07221561 567.98128836 62.07221561 570.31640625 64.23828125 C573.13264326 67.13650478 575.49862569 70.20231361 577.8125 73.5 C578.24336914 74.11093506 578.67423828 74.72187012 579.11816406 75.35131836 C586.16165014 85.43701863 592.03181201 95.72931069 597 107 C597.64582031 108.31871094 597.64582031 108.31871094 598.3046875 109.6640625 C601.95778694 117.1744719 604.16739804 124.93297058 606.40917969 132.94580078 C607.26572334 135.92388271 608.23209145 138.86488769 609.1875 141.8125 C610.76645324 146.89812448 611.78507142 151.90938216 612.5703125 157.171875 C612.96728052 159.78464633 613.45779266 162.35158809 614 164.9375 C617.44272835 181.90716887 618.15075672 198.64566006 618.18945312 215.89746094 C618.19741178 217.87849599 618.20580097 219.85952935 618.21458435 221.84056091 C618.23254324 226.08554331 618.24759412 230.33052222 618.26036072 234.57552338 C618.28074835 241.31284441 618.30838176 248.05012431 618.33703613 254.78741455 C618.39693091 269.10825685 618.44878233 283.42912447 618.5 297.75 C618.55528301 313.17493264 618.61216327 328.59985258 618.67754889 344.02474618 C618.70101724 349.61280266 618.72260789 355.20085271 618.73963928 360.7889328 C618.75709271 388.62464914 618.75709271 388.62464914 619.62236786 416.44230652 C620.40125072 433.34984176 620.32645253 450.29735883 620.47232056 467.21945858 C620.51932907 472.55203735 620.57137913 477.88456674 620.62304688 483.21710205 C620.76418354 497.87328814 620.8979453 512.52953956 621.03125 527.18579865 C621.15374917 540.65038934 621.27790338 554.11495897 621.40851593 567.57947373 C621.46947849 573.88676717 621.5266697 580.19407916 621.58079529 586.5014348 C621.61545787 590.44557945 621.65349829 594.38968667 621.69238281 598.33379173 C621.70949936 600.13749365 621.72528391 601.94120889 621.73950195 603.74493599 C621.82158955 614.05464801 622.08830832 624.3317422 622.64725018 634.62766528 C623.05918915 642.34101809 623.15107526 650.04696988 623.13894653 657.77056885 C623.13807163 658.66699348 623.13719673 659.56341812 623.13629532 660.48700714 C623.13514599 661.40395103 623.13399666 662.32089493 623.1328125 663.265625 C623.13348854 665.20619723 623.13446105 667.14676937 623.13571167 669.08734131 C623.13716751 673.10055367 623.13509861 677.11374343 623.13037109 681.12695312 C623.12459722 686.27951926 623.1280136 691.43203416 623.13394356 696.58459854 C623.13754131 700.56667474 623.13641557 704.54873857 623.13381577 708.53081512 C623.13314827 710.43350989 623.13396874 712.33620577 623.13629532 714.23889923 C623.13881711 716.8731643 623.1349916 719.50734299 623.12939453 722.14160156 C623.13141876 722.92787933 623.13344299 723.7141571 623.13552856 724.52426147 C623.11427913 729.88572087 623.11427913 729.88572087 622 731 C620.05335813 731.09883795 618.10307998 731.12632237 616.15393066 731.12698364 C614.8834639 731.12980347 613.61299713 731.13262329 612.30403137 731.13552856 C610.88302598 731.13358397 609.46202073 731.13153578 608.04101562 731.12939453 C606.55482439 731.13074852 605.06863349 731.13252844 603.58244324 731.13470459 C599.53503541 731.13927922 595.48765296 731.13748924 591.44024467 731.1343255 C587.21394658 731.13180205 582.98765072 731.1341394 578.76135254 731.13571167 C571.66267505 731.13753341 564.56400795 731.13512694 557.46533203 731.13037109 C549.24639189 731.12492846 541.02747655 731.12669112 532.80853701 731.1321975 C525.76482063 731.1367285 518.72111175 731.13737924 511.67739439 731.13475883 C507.46484184 731.13319598 503.25230096 731.13300249 499.03974915 731.13629532 C495.08029831 731.13917385 491.12087961 731.13719868 487.16143227 731.13140106 C485.7041002 731.13007337 484.24676545 731.13046774 482.78943443 731.13266373 C480.80831368 731.13537482 478.82718706 731.13138077 476.84606934 731.12698364 C475.73476402 731.12660662 474.62345871 731.12622959 473.47847748 731.12584114 C471 731 471 731 470 730 C469.84781242 727.49106222 469.76317329 725.00792693 469.71875 722.49609375 C469.70070313 721.67139587 469.68265625 720.846698 469.6640625 719.99700928 C469.60389243 717.14392352 469.55180387 714.29074926 469.5 711.4375 C469.4589933 709.37996401 469.41797733 707.32242821 469.37695312 705.26489258 C469.08918422 690.14101458 468.91214814 675.01626977 468.75 659.890625 C468.734282 658.43807406 468.734282 658.43807406 468.71824646 656.95617867 C468.61181644 647.1077494 468.50863604 637.25931476 468.41920471 627.4107151 C468.38431789 623.64276629 468.3462412 619.87485338 468.30761719 616.10694122 C468.29041535 614.35266753 468.27464207 612.59837908 468.26049805 610.84407806 C468.19196483 602.38510254 468.0325443 593.96062772 467.51367188 585.51660156 C466.65497619 571.00214744 466.67975018 556.44600709 466.52757835 541.91056943 C466.48998818 538.37464211 466.44964276 534.83874818 466.40931845 531.30285114 C466.30015297 521.7282323 466.19671448 512.15355929 466.09576178 502.57885069 C466.0215468 495.55246229 465.94488167 488.52610388 465.86694336 481.49975586 C465.37867755 437.38893334 464.95962434 393.27854719 464.73360443 349.1655376 C464.718825 346.29192712 464.70372762 343.41831849 464.6885376 340.54471016 C464.59747022 323.27294594 464.5101256 306.00120083 464.455585 288.72927791 C464.43412388 282.02123052 464.40644189 275.31322685 464.37426424 268.6052224 C464.35620692 264.76431358 464.34143589 260.92346636 464.33580017 257.08251762 C464.88095669 210.81007292 464.88095669 210.81007292 443.9296875 170.8828125 C437.65423316 164.75979835 431.01682605 162.06364326 422.625 159.76171875 C420 159 420 159 419 158 C415.85847283 157.44495068 412.67378767 157.1859986 409.5 156.875 C408.56196533 156.78299316 407.62393066 156.69098633 406.6574707 156.59619141 C398.00740858 155.84006965 389.62676998 156.16332768 381 157 C381.30808594 157.95390625 381.61617187 158.9078125 381.93359375 159.890625 C383.23793229 164.45523529 383.64346389 169.03493282 384.0625 173.75 C384.21697031 175.43257744 384.3743975 177.11488673 384.53515625 178.796875 C384.600979 179.53260742 384.66680176 180.26833984 384.73461914 181.02636719 C384.96528047 183.20747817 384.96528047 183.20747817 386 186 C386.23400786 188.43206654 386.4164271 190.84072601 386.55065918 193.27861023 C386.5926958 194.02596489 386.63473243 194.77331954 386.67804289 195.54332131 C387.18906879 205.53748171 387.16930422 215.53758466 387.18945312 225.54223633 C387.19741521 227.75857188 387.20580465 229.97490594 387.21458435 232.1912384 C387.23251185 236.93107978 387.2475728 241.67091814 387.26036072 246.41077614 C387.28076199 253.92415599 387.30838894 261.43749913 387.33703613 268.95085144 C387.37659501 279.4992086 387.41356953 290.04757154 387.44775391 300.59594727 C387.44991671 301.2629477 387.45207951 301.92994813 387.45430785 302.6171607 C387.46962852 307.34894018 387.48482534 312.08072005 387.5 316.8125 C387.51732317 322.21264678 387.53471177 327.61279335 387.55224609 333.01293945 C387.55440496 333.67820008 387.55656383 334.34346071 387.55878812 335.02888075 C387.59507644 346.17597036 387.63507866 357.32304426 387.67754889 368.47011203 C387.7056675 375.92006909 387.7293439 383.37002232 387.74947357 390.82000506 C387.76298919 395.47645062 387.78039245 400.13287612 387.79878426 404.78930473 C387.80645055 406.92722687 387.81255819 409.06515534 387.81687737 411.20308685 C387.83959074 422.03533931 388.0286185 432.81690575 388.63243818 443.63298827 C389.13517446 452.88749941 389.21099094 462.13810151 389.28125 471.40429688 C389.29911806 473.35507028 389.31735876 475.30584029 389.3359375 477.25660706 C389.37479475 481.41361332 389.41117712 485.57063071 389.44555664 489.72767639 C389.50020391 496.32138377 389.56119437 502.91502381 389.62304688 509.50866699 C389.76454004 524.69222592 389.89794748 539.87585374 390.03125 555.05948639 C390.1536503 568.99169405 390.2778238 582.92388016 390.40851593 596.85601282 C390.4695791 603.39021596 390.52675573 609.92443725 390.58079529 616.45870209 C390.6154147 620.54483458 390.65346761 624.63093023 390.69238281 628.71702385 C390.70952793 630.58886919 390.72530887 632.46072769 390.73950195 634.33259773 C390.82460714 645.44317431 391.15633606 656.5082527 391.77850151 667.60221577 C392.12244599 673.93552274 392.14385738 680.26348046 392.1328125 686.60546875 C392.13376923 687.86216873 392.13472595 689.11886871 392.13571167 690.41365051 C392.13638267 693.02047782 392.13460533 695.62730691 392.13037109 698.23413086 C392.12582728 701.57858511 392.12804164 704.92288728 392.13394356 708.26732922 C392.13839804 711.48421201 392.13529746 714.70108494 392.1328125 717.91796875 C392.13483673 719.11874557 392.13686096 720.3195224 392.13894653 721.5566864 C392.13579437 722.65326065 392.13264221 723.7498349 392.12939453 724.87963867 C392.12820114 726.33136726 392.12820114 726.33136726 392.12698364 727.81242371 C392 730 392 730 391 731 C389.05335813 731.09883795 387.10307998 731.12632237 385.15393066 731.12698364 C383.8834639 731.12980347 382.61299713 731.13262329 381.30403137 731.13552856 C379.88302598 731.13358397 378.46202073 731.13153578 377.04101562 731.12939453 C375.55482439 731.13074852 374.06863349 731.13252844 372.58244324 731.13470459 C368.53503541 731.13927922 364.48765296 731.13748924 360.44024467 731.1343255 C356.21394658 731.13180205 351.98765072 731.1341394 347.76135254 731.13571167 C340.66267505 731.13753341 333.56400795 731.13512694 326.46533203 731.13037109 C318.24639189 731.12492846 310.02747655 731.12669112 301.80853701 731.1321975 C294.76482063 731.1367285 287.72111175 731.13737924 280.67739439 731.13475883 C276.46484184 731.13319598 272.25230096 731.13300249 268.03974915 731.13629532 C264.08029831 731.13917385 260.12087961 731.13719868 256.16143227 731.13140106 C254.7041002 731.13007337 253.24676545 731.13046774 251.78943443 731.13266373 C249.80831368 731.13537482 247.82718706 731.13138077 245.84606934 731.12698364 C244.73476402 731.12660662 243.62345871 731.12622959 242.47847748 731.12584114 C240 731 240 731 239 730 C238.75345917 727.21433029 238.58808113 724.45679067 238.46875 721.6640625 C238.40645203 720.24234238 238.40645203 720.24234238 238.34289551 718.79190063 C237.60181177 699.68312572 237.64261855 680.5409966 237.47393799 661.4208374 C237.42234075 655.60742805 237.36735031 649.79406871 237.30812073 643.98073196 C237.27496719 640.56331514 237.24857864 637.14585792 237.22405243 633.72836876 C237.13315606 626.31818477 236.92181431 618.93677891 236.5057373 611.53753662 C235.99466469 601.85359177 235.80124966 592.1874416 235.71875 582.49169922 C235.70087271 580.74457441 235.68263196 578.99745328 235.6640625 577.25033569 C235.62527001 573.53367803 235.58887692 569.81700804 235.55444336 566.10030746 C235.49970344 560.20444782 235.43874564 554.30866168 235.37695312 548.41287231 C235.2356028 534.8394429 235.10202971 521.26593925 234.96875 507.69242859 C234.84632544 495.23028936 234.72217892 482.76817373 234.59148407 470.30611813 C234.5304417 464.46380907 234.47326297 458.62147976 234.41920471 452.77910209 C234.38458359 449.12681667 234.346532 445.47457242 234.30761719 441.82233047 C234.29047447 440.14960364 234.27469322 438.47686211 234.26049805 436.80410767 C234.18957089 428.5307331 234.00164908 420.29287019 233.4942627 412.03385925 C232.92766492 402.75586096 232.83380347 393.5018757 232.81054688 384.20874023 C232.80257722 382.40790119 232.79418727 380.60706396 232.78541565 378.80622864 C232.76755038 374.96945681 232.75246949 371.13268846 232.73963928 367.29589653 C232.71919158 361.22206425 232.69157801 355.14827669 232.66296387 349.07447815 C232.59818263 335.10006341 232.54235575 321.12561585 232.48697662 307.15116119 C232.43602421 294.30635273 232.3831319 281.46156086 232.32245111 268.61679417 C232.29422295 262.58463433 232.27058701 256.55247968 232.25052643 250.52028739 C232.23709523 246.76902698 232.21968761 243.01779253 232.20121574 239.26655388 C232.19349406 237.53360148 232.18740961 235.80064085 232.18312263 234.06767654 C233.29319522 220.65500692 233.29319522 220.65500692 230 209 C229.72384942 207.40012764 229.47992375 205.794667 229.25 204.1875 C227.64139343 195.00056913 223.7190558 186.83269926 219.015625 178.83984375 C218 177 218 177 217 174 C216.01 173.67 215.02 173.34 214 173 C212.3125 171.5625 212.3125 171.5625 211 170 C211 169.34 211 168.68 211 168 C210.29746094 167.731875 209.59492187 167.46375 208.87109375 167.1875 C204.80349894 165.50512065 200.94465599 163.45530632 197.03515625 161.4375 C190.51143101 158.34775626 184.49475327 157.43899944 177.375 156.8125 C176.45332031 156.71775391 175.53164063 156.62300781 174.58203125 156.52539062 C169.51809385 156.06407227 164.70789754 156.01858953 159.63916016 156.4831543 C158.57750641 156.5783989 157.51585266 156.67364349 156.42202759 156.77177429 C155.62275848 156.84708878 154.82348938 156.92240326 154 157 C154.02969846 157.68931783 154.05939691 158.37863566 154.08999532 159.08884192 C155.18106456 185.59570099 155.13803176 212.09580437 155.11606562 238.62094331 C155.11214434 244.57576627 155.11303038 250.53058817 155.11374746 256.48541196 C155.11505024 268.63852631 155.1117628 280.79163517 155.10573006 292.94474792 C155.09978446 304.95346606 155.09595839 316.96218189 155.09487724 328.97090149 C155.0948085 329.72148812 155.09473976 330.47207476 155.09466894 331.24540644 C155.09433054 335.05826415 155.09402918 338.87112186 155.09374207 342.68397957 C155.09164946 369.5922184 155.08493409 396.50045425 155.07543945 423.40869141 C155.06623432 449.52685531 155.05916089 475.64501839 155.05493164 501.76318359 C155.05480011 502.57024712 155.05466859 503.37731064 155.05453308 504.20883063 C155.0532144 512.31472895 155.05193861 520.42062728 155.05069422 528.52652561 C155.04815896 545.03473294 155.04533771 561.54294021 155.04234314 578.05114746 C155.0421372 579.18932827 155.0421372 579.18932827 155.04192711 580.35050263 C155.03274821 630.90033635 155.01688464 681.45016833 155 732 C146.19583368 730.93610658 146.19583368 730.93610658 142.37109375 729.80078125 C141.57106934 729.56415771 140.77104492 729.32753418 139.94677734 729.08374023 C139.11871582 728.82923096 138.2906543 728.57472168 137.4375 728.3125 C136.12966553 727.91430054 136.12966553 727.91430054 134.79541016 727.50805664 C114.38265606 721.16668376 94.41917902 711.88068753 78 698 C77.47019531 697.5575293 76.94039062 697.11505859 76.39453125 696.65917969 C39.74399218 666.01593096 19.44878067 626.24291447 9 580 C8.67708984 578.57155762 8.67708984 578.57155762 8.34765625 577.11425781 C5.09345457 562.24170534 3.91241214 547.29097541 3.11296654 532.10984135 C3.03681119 530.68751129 2.95828024 529.26530668 2.87752724 527.84323025 C2.04211262 513.07508067 1.83724031 498.34409501 1.81054688 483.5546875 C1.80258114 481.07291023 1.79419145 478.59113428 1.78541565 476.10935974 C1.76749835 470.80269731 1.75232434 465.49603826 1.73963928 460.18936157 C1.72109903 452.46824698 1.69643774 444.74716039 1.67026538 437.02606833 C1.62764224 424.42770717 1.58851353 411.82933802 1.55224609 399.23095703 C1.55008329 398.48006731 1.54792049 397.72917758 1.54569215 396.95553362 C1.5325762 392.39604211 1.51953674 387.83655037 1.50651073 383.2770586 C1.48708758 376.48402167 1.46751149 369.69098519 1.44775391 362.89794922 C1.44559504 362.1552777 1.44343617 361.41260618 1.44121188 360.64742947 C1.40468073 348.1180895 1.36468905 335.5887626 1.32245111 323.05944061 C1.2990281 316.06687418 1.27737281 309.07431129 1.26036072 302.08172607 C1.1967051 276.07389881 1.08155608 250.08026232 0.419016 224.08009303 C-0.12788542 202.40068718 -0.13045867 180.72697725 -0.10139394 159.04180884 C-0.09498398 153.41661193 -0.09454309 147.79141399 -0.09336853 142.16621399 C-0.09030568 131.59604123 -0.08216317 121.02587927 -0.07201904 110.45571119 C-0.06069754 98.3871841 -0.05530778 86.31865639 -0.05032361 74.25012529 C-0.03997401 49.50007762 -0.02247649 24.75003943 0 0 Z " fill="#FEFEFF" transform="translate(459,1526)"/>
<path d="M0 0 C50.82 0 101.64 0 154 0 C155.18698863 28.48772719 156.32573485 56.82025944 156.5512867 85.30815506 C156.59835178 91.00796391 156.65691036 96.70762754 156.71641541 102.40731812 C156.80941767 111.43287692 156.89549416 120.4584847 156.97826141 129.48414266 C157.12658126 145.64705395 157.28470438 161.80986772 157.44918627 177.97262228 C157.50615392 183.60086703 157.55929769 189.22912897 157.60892308 194.85744309 C157.64066463 198.38464884 157.67536604 201.91182182 157.71067619 205.43899345 C157.72602789 207.03252839 157.74022665 208.6260751 157.75296021 210.2196331 C157.87883876 225.82912382 158.47961917 241.3885751 159 257 C195.63 257.495 195.63 257.495 233 258 C233.33 172.86 233.66 87.72 234 0 C255.56005235 5.39001309 274.13677673 12.45229416 294 22 C294 22.66 294 23.32 294 24 C294.98806641 24.06574219 294.98806641 24.06574219 295.99609375 24.1328125 C300.41448518 25.40834293 303.48230456 28.05442168 307.0625 30.875 C307.81039795 31.45564209 308.5582959 32.03628418 309.32885742 32.63452148 C315.865636 37.76891228 322.02723673 43.22021777 328 49 C328.76699219 49.72058594 329.53398437 50.44117188 330.32421875 51.18359375 C332 53 332 53 332 55 C332.66 55 333.32 55 334 55 C335.81402863 57.08778751 337.51097891 59.18057272 339.1875 61.375 C339.68362793 62.01767822 340.17975586 62.66035645 340.69091797 63.32250977 C351.15717809 76.95793847 360.2770541 91.13834212 367 107 C367.77150391 108.80791016 367.77150391 108.80791016 368.55859375 110.65234375 C373.24501436 121.86690176 376.43384654 133.37643597 379.2890625 145.18359375 C379.81017519 147.24800173 380.38585406 149.29883946 380.9921875 151.33984375 C382.06923688 155.25145334 382.82557839 159.12893727 383.5 163.125 C383.69118408 164.24140869 383.69118408 164.24140869 383.88623047 165.38037109 C384.14217289 166.88471868 384.39595499 168.38943559 384.64746094 169.89453125 C384.95876684 171.75374322 385.27945097 173.61137964 385.6015625 175.46875 C388.10409659 190.55865704 388.15656859 205.67124095 388.18945312 220.92236328 C388.19741392 222.98900006 388.20580326 225.05563522 388.21458435 227.12226868 C388.23252331 231.54511156 388.24758058 235.96795116 388.26036072 240.39081192 C388.28075593 247.40443429 388.30838526 254.41801727 388.33703613 261.43161011 C388.39689038 276.3293881 388.44881467 291.22719009 388.5 306.125 C388.55526329 322.19340913 388.61201373 338.26180617 388.67754889 354.33017719 C388.70563521 361.28142628 388.72932317 368.23267138 388.74947357 375.1839478 C388.7630129 379.53452225 388.78041454 383.88507547 388.79878426 388.23563194 C388.80643502 390.22961442 388.81254899 392.22360359 388.81687737 394.21759605 C388.84331637 405.95544217 389.16251851 417.63697962 389.77178192 429.35902023 C390.05100748 434.80783518 390.16336064 440.24973254 390.18945312 445.70532227 C390.19774643 446.70038788 390.20603973 447.69545349 390.21458435 448.72067261 C390.2316703 450.83196703 390.24691476 452.94327712 390.26036072 455.05459785 C390.28190133 458.418109 390.30886433 461.78154246 390.33703613 465.14500427 C390.40587459 473.48888052 390.46589477 481.83281535 390.52606201 490.17675781 C390.57751395 497.2648914 390.63247814 504.35298183 390.69187927 511.44105339 C390.71794504 514.71529117 390.73905283 517.98953465 390.7598877 521.2638092 C390.77652769 523.31723224 390.79340261 525.37065338 390.81054688 527.42407227 C390.8168235 528.73946739 390.8168235 528.73946739 390.82322693 530.08143616 C390.87341435 535.37846517 391.07632063 540.65387099 391.36526829 545.94231862 C391.96048288 556.84535831 392.1372663 567.70257464 392.11352539 578.62011719 C392.1132423 580.48511249 392.11340361 582.35010791 392.1139679 584.21510315 C392.11425114 589.20757132 392.10843197 594.20001474 392.10139394 599.19247723 C392.09508061 604.43611712 392.09455036 609.67975777 392.09336853 614.92340088 C392.09027849 624.82150306 392.08209693 634.71959401 392.07201904 644.61769128 C392.05867848 658.01524162 392.05333917 671.4127951 392.04751682 684.81035042 C392.03815511 705.87357534 392.01822078 726.93677656 392 748 C341.51 748 291.02 748 239 748 C236.66850293 696.70706455 236.66850293 696.70706455 236.49412537 671.62670898 C236.47909575 669.77391473 236.4639542 667.92112138 236.4487133 666.06832886 C236.43761154 664.67042177 236.43761154 664.67042177 236.42628551 663.24427414 C236.38499353 658.29568163 236.33376082 653.34719063 236.28358459 648.39868164 C236.19041228 639.0848317 236.10436276 629.7709335 236.02173859 620.45698452 C235.87344511 603.74634229 235.71626173 587.03578703 235.55081373 570.32530594 C235.49340862 564.49357497 235.44034787 558.66182702 235.39107692 552.83002186 C235.35964094 549.19622594 235.32486262 545.5624669 235.28932381 541.92870903 C235.27379311 540.26970111 235.2596164 538.61067975 235.24703979 536.9516468 C235.17278579 527.25801272 234.87161693 517.60407062 234.35240221 507.92369676 C234.04593811 502.16243394 233.85884862 496.42171623 233.88647461 490.65136719 C233.88632858 489.79013245 233.88618256 488.92889771 233.8860321 488.04156494 C233.88670935 485.29330599 233.89439443 482.54512156 233.90234375 479.796875 C233.90421578 477.8524784 233.90563596 475.90808133 233.90663147 473.96368408 C233.91039498 468.92019275 233.92017019 463.8767316 233.93133545 458.83325195 C233.94351373 452.74218367 233.94798125 446.65110512 233.95378876 440.56002808 C233.96338719 431.37333125 233.98258629 422.18670026 234 413 C209.58 413 185.16 413 160 413 C160.01546875 427.45748047 160.01546875 427.45748047 160.03125 442.20703125 C160.03379028 449.12842819 160.03540185 456.04979876 160.03125 462.97119141 C160.03069107 463.90347604 160.03013214 464.83576067 160.02955627 465.79629636 C160.00936163 494.30575675 159.89307505 522.81500021 159.78125 551.32421875 C159.77851342 552.02269356 159.77577683 552.72116836 159.77295732 553.44080907 C159.70239691 571.43382119 159.62900439 589.42682139 159.55461788 607.41981804 C159.51147667 617.86150033 159.46910969 628.30318556 159.42724609 638.74487305 C159.4242591 639.48983965 159.4212721 640.23480626 159.41819459 641.00234761 C159.40320019 644.74297223 159.38821821 648.4835969 159.37324238 652.22422159 C159.25074979 682.81615566 159.12610776 713.40808061 159 744 C157.41017382 743.68530293 155.82052763 743.36969644 154.23095703 743.05371094 C153.34570343 742.87805603 152.46044983 742.70240112 151.54837036 742.52142334 C105.01668259 733.00055133 66.34792452 704.36208075 40.39453125 665.078125 C34.75038692 656.37899072 30.11947198 647.51740078 26 638 C25.71753418 637.39043457 25.43506836 636.78086914 25.14404297 636.15283203 C23.60892881 632.77845193 23 630.78668736 23 627 C22.34 627 21.68 627 21 627 C20.74605469 626.10539062 20.49210937 625.21078125 20.23046875 624.2890625 C19.88628906 623.07992187 19.54210938 621.87078125 19.1875 620.625 C19.00517822 619.98377197 18.82285645 619.34254395 18.63500977 618.68188477 C17.60913572 615.087053 16.54680436 611.50733583 15.4375 607.9375 C13.24930504 600.6913462 11.36222972 593.26220117 10.375 585.75 C10.29524348 583.09354906 10.29524348 583.09354906 9 582 C8.62349287 579.04088924 8.29263896 576.09254194 8 573.125 C7.83641295 571.48146139 7.66986383 569.83821425 7.5 568.1953125 C7.4278125 567.46328613 7.355625 566.73125977 7.28125 565.97705078 C7.03101992 563.79395347 7.03101992 563.79395347 6 561 C4.7023016 549.09788678 4.83640991 537.0964181 4.81054688 525.14111328 C4.8025858 523.08096657 4.79419644 521.02082148 4.78541565 518.9606781 C4.76747519 514.55093999 4.75241816 510.14120518 4.73963928 505.73144913 C4.71923375 498.7335306 4.69160427 491.73565145 4.66296387 484.73776245 C4.60310665 469.86686031 4.55121628 454.99593401 4.5 440.125 C4.4447109 424.098709 4.38786718 408.07243013 4.32245111 392.04617679 C4.29897575 386.2412914 4.27738499 380.43641223 4.26036072 374.63150406 C4.25876923 346.05589255 4.25876923 346.05589255 3.37763214 317.4989748 C2.58737723 300.48827314 2.67298413 283.43520789 2.52767944 266.4096148 C2.48067476 261.02411906 2.42862155 255.63867227 2.37695312 250.2532196 C2.23580222 235.44991556 2.10209146 220.64654628 1.96875 205.84317017 C1.84623096 192.24630854 1.72204609 178.64946776 1.59148407 165.05268067 C1.53054774 158.68377952 1.47335134 152.31486003 1.41920471 145.9458977 C1.38451962 141.96127958 1.34648449 137.97669814 1.30761719 133.99211884 C1.29051353 132.17109858 1.2747274 130.35006529 1.26049805 128.52902031 C1.17673621 117.91555842 0.89931311 107.33289968 0.35135508 96.73234206 C-0.0526437 88.77659737 -0.14042108 80.83025753 -0.11315918 72.86499023 C-0.11065659 71.95562714 -0.10815399 71.04626404 -0.10557556 70.10934448 C-0.10296219 69.20958893 -0.10034882 68.30983337 -0.09765625 67.3828125 C-0.09617884 65.63793978 -0.09516308 63.89306661 -0.09460449 62.14819336 C-0.08944416 55.80712198 -0.07548409 49.46606019 -0.0625 43.125 C-0.041875 28.89375 -0.02125 14.6625 0 0 Z " fill="#FFFFFF" transform="translate(3195,1556)"/>
<path d="M0 0 C1.10948502 -0.00637985 2.21897003 -0.0127597 3.36207581 -0.01933289 C5.18206337 -0.02100212 5.18206337 -0.02100212 7.03881836 -0.02270508 C8.28682724 -0.02603348 9.53483612 -0.02936188 10.82066345 -0.03279114 C13.47813444 -0.03787108 16.13550341 -0.04063007 18.79296875 -0.04003906 C21.48997827 -0.0399586 24.18681509 -0.04676449 26.88378906 -0.06054688 C55.13974499 -0.19475874 55.13974499 -0.19475874 68.81616211 2.14526367 C70.5674428 2.4058242 72.31874228 2.66625843 74.07006836 2.92651367 C75.50681316 3.16279531 76.94304729 3.40221074 78.37866211 3.64526367 C79.10633789 3.76256836 79.83401367 3.87987305 80.58374023 4.00073242 C85.10595228 4.75646597 89.42012919 5.81611598 93.81616211 7.14526367 C95.15423491 7.52971183 96.49279942 7.91245168 97.83178711 8.29370117 C124.97862256 16.12170643 151.10489814 27.80043872 171.89038086 47.39526367 C173.70406796 49.20194625 173.70406796 49.20194625 175.81616211 50.14526367 C175.81616211 50.80526367 175.81616211 51.46526367 175.81616211 52.14526367 C176.47616211 52.14526367 177.13616211 52.14526367 177.81616211 52.14526367 C179.17793133 53.78877825 180.50578277 55.46049023 181.81616211 57.14526367 C182.59991211 57.92901367 183.38366211 58.71276367 184.19116211 59.52026367 C186.25006962 61.57917118 188.20727463 63.64916331 190.12866211 65.83276367 C190.64041992 66.41413086 191.15217773 66.99549805 191.67944336 67.59448242 C192.81616211 69.14526367 192.81616211 69.14526367 192.81616211 71.14526367 C193.47616211 71.14526367 194.13616211 71.14526367 194.81616211 71.14526367 C196.33178711 73.23510742 196.33178711 73.23510742 198.06616211 76.08276367 C200.22248956 79.581794 202.40167494 83.02515603 204.75366211 86.39526367 C220.13123148 109.58366193 228.55345539 137.02948822 233.81616211 164.14526367 C233.97592529 164.86560791 234.13568848 165.58595215 234.30029297 166.328125 C235.74503421 173.01565237 236.39196404 179.63975849 236.87866211 186.45776367 C237.03354058 188.55822294 237.19099901 190.65849393 237.35131836 192.75854492 C237.41714111 193.67418213 237.48296387 194.58981934 237.55078125 195.53320312 C237.75285537 198.085487 237.75285537 198.085487 238.32328033 200.29420567 C238.96267894 203.99278536 238.96620959 207.63337869 238.96765137 211.37425232 C238.97399998 212.61415589 238.97399998 212.61415589 238.98047686 213.87910801 C238.99349704 216.65199183 238.99952857 219.42484684 239.00561523 222.19775391 C239.01356397 224.19060437 239.02195243 226.18345313 239.03074646 228.17630005 C239.04884641 232.48891635 239.0638532 236.80152872 239.07652283 241.11416435 C239.09698364 248.05261864 239.12464304 254.9910336 239.15319824 261.92945862 C239.20832514 275.56576363 239.25604201 289.20208999 239.30313873 302.83842468 C239.37457474 323.37692401 239.45152975 343.91540312 239.53491211 364.45385742 C239.53974735 365.64598579 239.5445826 366.83811416 239.54956436 368.06636763 C239.69666638 403.99267423 239.91871472 439.91782508 240.2542057 475.84288907 C240.28454305 479.14030613 240.31341809 482.43773302 240.34190369 485.73516655 C240.38671438 490.88287182 240.43599086 496.03051581 240.48879242 501.17814517 C240.50735718 503.03965446 240.52464796 504.90117704 240.54045868 506.76271176 C240.63354468 517.53520651 240.97729848 528.25834351 241.59081078 539.01380444 C241.85249888 543.6471856 241.98393657 548.27385144 242.02148438 552.91430664 C242.03138397 553.73329941 242.04128357 554.55229218 242.05148315 555.39610291 C242.08254596 558.05985926 242.10780996 560.72362932 242.13256836 563.38745117 C242.15335026 565.35710874 242.17434813 567.32676405 242.19554138 569.29641724 C242.23930845 573.45336757 242.28012056 577.61033375 242.31884766 581.76733398 C242.35664711 585.80351854 242.39799927 589.83963133 242.44384766 593.87573242 C242.97874672 640.96387019 242.8599445 688.05489484 242.81616211 735.14526367 C212.08068733 735.19094627 181.34522036 735.22631261 150.60971971 735.24739433 C146.97630397 735.24989557 143.3428883 735.25248423 139.70947266 735.25512695 C138.62450863 735.25591388 138.62450863 735.25591388 137.51762613 735.25671671 C125.82521836 735.26540549 114.13283037 735.281167 102.44043431 735.29956926 C90.43173099 735.3183109 78.42303799 735.32938939 66.41432065 735.33344066 C59.67394913 735.33593215 52.93361877 735.34189529 46.1932621 735.35672379 C39.84286237 735.37034632 33.49252568 735.37447686 27.14211273 735.37147903 C24.81742446 735.37202711 22.49273398 735.37597658 20.1680584 735.38367462 C8.8488985 735.41930391 -2.05260345 735.40616045 -13.18383789 733.14526367 C-14.59939401 732.92448015 -16.01599666 732.71023716 -17.43383789 732.50463867 C-33.17814716 729.94618842 -48.67054646 725.84198302 -63.18383789 719.14526367 C-64.93344022 718.37352816 -66.68341109 717.60262731 -68.43383789 716.83276367 C-69.68450088 716.27173932 -70.93478394 715.70986129 -72.18383789 715.14526367 C-72.18383789 714.48526367 -72.18383789 713.82526367 -72.18383789 713.14526367 C-72.89540039 713.05116211 -73.60696289 712.95706055 -74.34008789 712.86010742 C-79.98085506 711.44216732 -84.50265602 707.48278588 -89.18383789 704.14526367 C-90.70557617 703.07791992 -90.70557617 703.07791992 -92.25805664 701.98901367 C-133.6048101 671.69227086 -150.38358098 624.82998873 -158.19555664 575.93432617 C-159.27687121 568.75366436 -160.14093235 561.56336324 -160.80883789 554.33276367 C-160.87453979 553.62313477 -160.9402417 552.91350586 -161.00793457 552.18237305 C-162.40930422 536.35595101 -162.45513628 520.52372501 -162.43383789 504.64526367 C-162.4329718 503.41367523 -162.43210571 502.18208679 -162.43121338 500.91317749 C-162.42474871 497.35502699 -162.40855111 493.79710231 -162.38696289 490.23901367 C-162.38258209 489.18184647 -162.37820129 488.12467926 -162.37368774 487.03547668 C-162.21588676 470.24141027 -162.21588676 470.24141027 -160.18383789 464.14526367 C-108.37383789 464.14526367 -56.56383789 464.14526367 -3.18383789 464.14526367 C-4.18383789 483.14526367 -4.18383789 483.14526367 -5.18383789 491.14526367 C-5.91157942 505.82138453 -5.56459288 520.66400931 -3.99633789 535.27026367 C-3.89546875 536.2923291 -3.79459961 537.31439453 -3.69067383 538.36743164 C-2.30635134 549.72745806 1.90526454 561.3108713 10.84741211 568.86010742 C22.098264 576.9615131 35.02338344 577.31032221 48.41381836 577.24291992 C49.48869003 577.24150497 50.56356171 577.24009003 51.67100525 577.2386322 C55.07358693 577.23307519 58.47610062 577.22053081 61.87866211 577.20776367 C64.19832261 577.20274311 66.51798415 577.19818118 68.83764648 577.1940918 C74.49717454 577.18311987 80.15666346 577.16642507 85.81616211 577.14526367 C85.70669376 568.40608512 85.59374675 559.66695942 85.47682285 550.92787743 C85.42257994 546.86624333 85.36936428 542.80460221 85.31884766 538.74291992 C85.1017434 521.34488042 84.78540306 503.96513555 84.14993286 486.57684326 C83.75278875 475.30484892 83.70040901 464.04786264 83.75366211 452.77026367 C83.75870938 450.83536905 83.76326634 448.9004731 83.76733398 446.96557617 C83.77803367 442.35877025 83.79510148 437.75203338 83.81616211 433.14526367 C84.47616211 433.14526367 85.13616211 433.14526367 85.81616211 433.14526367 C85.81616211 431.82526367 85.81616211 430.50526367 85.81616211 429.14526367 C6.61616211 429.14526367 -72.58383789 429.14526367 -154.18383789 429.14526367 C-152.89093758 412.33755961 -149.97815159 398.3133318 -143.33227539 382.90698242 C-142.34071527 380.52251642 -141.50935835 378.17187092 -140.74633789 375.70776367 C-129.91259786 342.11099683 -102.25781093 313.9204713 -71.30883789 297.95776367 C-60.7894 292.96741039 -50.19323288 288.28112959 -38.79321289 285.75463867 C-36.41459767 285.19915368 -34.22249165 284.4884519 -31.93383789 283.64526367 C-25.89605701 281.54468781 -19.55858332 280.6087006 -13.2731781 279.53889465 C-11.93000624 279.28584153 -10.59350643 278.99229881 -9.270401 278.64945984 C-0.26729711 276.43797606 8.9585164 276.78975165 18.16772461 276.73120117 C20.03674145 276.71246462 21.90575005 276.6928894 23.77474976 276.67251587 C28.66378903 276.62145126 33.55285565 276.58168905 38.4420166 276.54437256 C43.44310122 276.50417091 48.4440746 276.45315274 53.44506836 276.40307617 C63.23535451 276.30662132 73.02570385 276.22212027 82.81616211 276.14526367 C82.74847802 268.60508234 82.65841651 261.065392 82.55371094 253.52563477 C82.52071529 250.96742615 82.49260691 248.40914916 82.46972656 245.85083008 C82.34252096 231.9989515 82.20909881 218.63572936 78.81616211 205.14526367 C78.48273804 203.74630859 78.48273804 203.74630859 78.14257812 202.3190918 C75.17376916 190.47906416 68.89601462 179.31071408 59.81616211 171.14526367 C58.90092773 170.60256836 57.98569336 170.05987305 57.04272461 169.50073242 C56.30795898 169.05342773 55.57319336 168.60612305 54.81616211 168.14526367 C54.81616211 167.48526367 54.81616211 166.82526367 54.81616211 166.14526367 C54.07881836 166.01893555 53.34147461 165.89260742 52.58178711 165.76245117 C49.99061705 165.18419571 47.96282558 164.38238449 45.56616211 163.27026367 C33.17152467 158.32684204 20.88716733 157.96114309 7.71069336 158.06713867 C6.35770931 158.07342375 5.00472242 158.07912448 3.6517334 158.08422852 C0.37313549 158.0988488 -2.90531318 158.11933686 -6.18383789 158.14526367 C-6.20716515 137.69227893 -6.22481621 117.23929688 -6.23565006 96.78630161 C-6.24081339 87.29030984 -6.24785678 77.79432632 -6.25927734 68.29833984 C-6.26922306 60.02473522 -6.27569105 51.75113657 -6.27792639 43.47752613 C-6.27923368 39.09392777 -6.28232074 34.71034651 -6.28956795 30.32675362 C-6.2963264 26.20562867 -6.29845521 22.08452794 -6.29694557 17.96339798 C-6.29722198 16.44640026 -6.29922814 14.92940178 -6.30304337 13.41240883 C-6.3079779 11.35019066 -6.30683709 9.28806541 -6.30409241 7.22584534 C-6.3054751 5.49057004 -6.3054751 5.49057004 -6.30688572 3.72023869 C-6.08919571 -0.83527716 -4.05712749 0.01578243 0 0 Z " fill="#FEFEFF" transform="translate(2614.183837890625,1544.854736328125)"/>
<path d="M0 0 C0.93210706 -0.00012053 1.86421412 -0.00024107 2.82456684 -0.00036526 C5.84506418 0.00038178 8.86550001 0.00800057 11.88598633 0.01586914 C13.74947073 0.01733921 15.61295554 0.01835952 17.47644043 0.0189209 C24.39030577 0.0241663 31.30416228 0.03812747 38.21801758 0.05102539 C53.66614258 0.07165039 69.11426758 0.09227539 85.03051758 0.11352539 C85.03051758 51.92352539 85.03051758 103.73352539 85.03051758 157.11352539 C56.81551758 157.60852539 56.81551758 157.60852539 28.03051758 158.11352539 C15.41322112 159.37525504 4.94183888 162.20220409 -4.21948242 171.36352539 C-15.828776 189.60670101 -15.11418272 209.95333476 -15.15893555 230.80419922 C-15.16689474 232.87286542 -15.17528396 234.94153 -15.18406677 237.01019287 C-15.20204767 241.45154655 -15.217093 245.89289683 -15.22984314 250.33426857 C-15.25029343 257.42035247 -15.27793006 264.50639791 -15.30651855 271.592453 C-15.36139845 285.42832872 -15.40945559 299.26422378 -15.45645905 313.10012817 C-15.51586461 330.55179091 -15.57741223 348.00344157 -15.64703131 365.45506686 C-15.67020164 371.31406715 -15.69179033 377.17306281 -15.7091217 383.03208351 C-15.79471738 411.87285998 -16.10958469 440.7003093 -16.67783785 469.53583473 C-20.70472877 521.2971748 -20.70472877 521.2971748 -4.65698242 568.42602539 C7.11324253 580.19625035 22.87751799 580.22012013 38.56176758 580.39477539 C41.17114263 580.43253255 43.78051762 580.47029306 46.38989258 580.50805664 C49.79319169 580.5535618 53.19652022 580.59672452 56.59985352 580.6395874 C61.25391044 580.69847693 65.90782933 580.76452622 70.56176758 580.83227539 C71.797052 580.84585083 73.03233643 580.85942627 74.30505371 580.87341309 C76.003172 580.89848938 76.003172 580.89848938 77.7355957 580.92407227 C78.73659302 580.93660034 79.73759033 580.94912842 80.7689209 580.96203613 C83.03051758 581.11352539 83.03051758 581.11352539 84.03051758 582.11352539 C84.12726324 584.12580584 84.15238766 586.14153908 84.15077209 588.15614319 C84.15283409 590.12711723 84.15283409 590.12711723 84.15493774 592.13790894 C84.15139812 593.60772728 84.14776331 595.07754539 84.14404297 596.54736328 C84.14376111 598.08443703 84.14391881 599.62151092 84.14448547 601.15858459 C84.14477349 605.34435399 84.1388761 609.53009498 84.13191152 613.71585774 C84.12567867 618.08542695 84.12507423 622.45499674 84.12388611 626.8245697 C84.12077259 635.10479586 84.11255892 643.38500889 84.10253662 651.66522926 C84.09137612 661.08949698 84.08586519 670.51376531 84.08084118 679.93803799 C84.07037633 699.32987458 84.05277649 718.72169893 84.03051758 738.11352539 C71.73820766 738.16003384 59.44591896 738.1954882 47.1535387 738.21714973 C41.44461249 738.22755046 35.73574684 738.24164133 30.02685547 738.2644043 C24.50902912 738.2862657 18.99126074 738.29812187 13.47339439 738.30327988 C11.3768593 738.30695189 9.28032708 738.31412186 7.18381691 738.3249855 C-3.74582846 738.3793259 -14.21917434 738.28848771 -24.96948242 736.11352539 C-26.37136977 735.87386109 -27.77366867 735.63658154 -29.17651367 735.40258789 C-42.10256527 733.02184166 -54.89927627 730.46041496 -66.96948242 725.11352539 C-68.18120117 724.60950195 -69.39291992 724.10547852 -70.64135742 723.58618164 C-90.4928506 715.2662657 -106.43702729 703.88997607 -121.96948242 689.11352539 C-122.97108398 688.19120117 -122.97108398 688.19120117 -123.99291992 687.25024414 C-129.07654815 682.43114861 -133.02328042 676.87936498 -136.96948242 671.11352539 C-137.34395508 670.56744629 -137.71842773 670.02136719 -138.10424805 669.45874023 C-151.96948242 649.07451541 -151.96948242 649.07451541 -151.96948242 641.11352539 C-152.62948242 641.11352539 -153.28948242 641.11352539 -153.96948242 641.11352539 C-154.46448242 637.15352539 -154.46448242 637.15352539 -154.96948242 633.11352539 C-155.62948242 633.11352539 -156.28948242 633.11352539 -156.96948242 633.11352539 C-158.31092093 628.44913261 -159.64248891 623.78204241 -160.96948242 619.11352539 C-161.24276367 618.1609082 -161.51604492 617.20829102 -161.79760742 616.22680664 C-163.85005783 608.92314003 -165.45141966 601.54487977 -166.96948242 594.11352539 C-167.13359619 593.36780273 -167.29770996 592.62208008 -167.46679688 591.85375977 C-168.82401355 585.50034826 -169.52565445 579.21071776 -170.03198242 572.73852539 C-170.18662421 570.81381018 -170.34406505 568.8893173 -170.50463867 566.96508789 C-170.57046143 566.12800293 -170.63628418 565.29091797 -170.70410156 564.4284668 C-170.90450422 562.1726351 -170.90450422 562.1726351 -171.46644622 560.27202863 C-172.01945607 557.89909096 -172.17897752 555.69671267 -172.2834425 553.26253223 C-172.32506443 552.29605926 -172.36668636 551.32958628 -172.40956956 550.33382624 C-172.44853072 549.28521098 -172.48749187 548.23659571 -172.52763367 547.15620422 C-172.56986232 546.04978555 -172.61209098 544.94336688 -172.6555993 543.80342036 C-173.11251182 530.67967994 -173.08123401 517.56048948 -173.0390625 504.43066406 C-173.03360926 501.71296167 -173.02973745 498.99525761 -173.0258379 496.2775526 C-173.01706253 490.66015192 -173.00486996 485.04276866 -172.9900856 479.42538071 C-172.96943398 471.53535363 -172.95738201 463.64532747 -172.94735718 455.75527954 C-172.90657328 425.6289442 -172.82473165 395.50269744 -172.73376751 365.37647724 C-172.72480963 362.39519069 -172.71589906 359.41390401 -172.70703125 356.43261719 C-172.70482757 355.69242595 -172.70262388 354.9522347 -172.70035342 354.18961342 C-172.66480699 342.14637717 -172.64000215 330.10314141 -172.6191354 318.05987177 C-172.59715453 305.50435387 -172.5639613 292.94890012 -172.52078086 280.39343709 C-172.49708723 273.41941693 -172.4779638 266.44545898 -172.47186852 259.47139931 C-172.44386906 230.43944936 -172.05440169 201.57018986 -169.70539856 172.62150574 C-169.64655019 171.88060853 -169.58770182 171.13971132 -169.52707016 170.37636268 C-169.09058582 165.3557322 -169.09058582 165.3557322 -167.96948242 163.11352539 C-167.52838756 159.66631348 -167.15614652 156.21936949 -166.80737305 152.76196289 C-166.26153189 147.72069825 -165.25815259 143.01777623 -163.96948242 138.11352539 C-163.72198242 136.31915039 -163.72198242 136.31915039 -163.46948242 134.48852539 C-162.97393066 131.14355101 -162.096046 128.29441079 -160.96948242 125.11352539 C-160.30130736 122.78062356 -159.63488448 120.44721967 -158.96948242 118.11352539 C-158.17387067 115.46237729 -157.35629264 112.81837823 -156.53198242 110.17602539 C-156.31388916 109.47670898 -156.0957959 108.77739258 -155.87109375 108.05688477 C-154.38820971 103.3441574 -152.7884477 98.70880611 -150.96948242 94.11352539 C-150.30948242 94.11352539 -149.64948242 94.11352539 -148.96948242 94.11352539 C-148.88311523 93.27563477 -148.79674805 92.43774414 -148.70776367 91.57446289 C-147.8438154 87.52441966 -146.20232377 84.28908678 -144.15698242 80.73852539 C-143.75882324 80.0444458 -143.36066406 79.35036621 -142.95043945 78.63525391 C-134.84817215 64.85767289 -124.56491298 51.12025779 -111.96948242 41.11352539 C-111.30948242 41.11352539 -110.64948242 41.11352539 -109.96948242 41.11352539 C-109.96948242 40.45352539 -109.96948242 39.79352539 -109.96948242 39.11352539 C-108.58349609 37.88012695 -108.58349609 37.88012695 -106.63745117 36.50415039 C-105.9265332 35.99956299 -105.21561523 35.49497559 -104.4831543 34.97509766 C-103.71551758 34.44327881 -102.94788086 33.91145996 -102.15698242 33.36352539 C-101.38032227 32.82074951 -100.60366211 32.27797363 -99.8034668 31.71875 C-94.05557234 27.75067556 -88.18787313 24.29338427 -81.96948242 21.11352539 C-80.46762036 20.24172533 -78.96756565 19.36680306 -77.46948242 18.48852539 C-73.31946652 16.16720354 -69.03837869 14.55093858 -64.54760742 13.00805664 C-62.89114949 12.43331593 -61.24800795 11.81772086 -59.62573242 11.15258789 C-45.15307572 5.49122512 -29.5513278 2.33092091 -14.07104492 1.32446289 C-0.8408181 -0.00347809 -0.8408181 -0.00347809 0 0 Z " fill="#FFFFFF" transform="translate(3058.969482421875,1555.886474609375)"/>
<path d="M0 0 C2.63555336 -0.36914349 2.63555336 -0.36914349 6.04898071 -0.36076355 C7.33909561 -0.36488754 8.62921051 -0.36901154 9.9584198 -0.3732605 C11.39627282 -0.36264231 12.83412375 -0.35173787 14.27197266 -0.34057617 C15.77963748 -0.33973034 17.28730355 -0.34020418 18.79496765 -0.34190369 C22.89606561 -0.3427668 26.99690201 -0.32509018 31.09793901 -0.30418181 C35.38073951 -0.28546747 39.66354555 -0.28366872 43.94638062 -0.28010559 C52.06017015 -0.27076967 60.17383887 -0.24613503 68.28757513 -0.21605712 C77.52322078 -0.18256116 86.7588721 -0.16603921 95.99456334 -0.15097082 C114.99644414 -0.11958676 133.99821237 -0.0667963 153 0 C154.47454133 2.94908266 154.17016429 5.9460946 154.18945312 9.1809082 C154.20189308 10.29119133 154.20189308 10.29119133 154.21458435 11.42390442 C154.23200755 13.03571223 154.24716813 14.6475457 154.26036072 16.25939369 C154.2814192 18.82136653 154.30844951 21.38321495 154.33703613 23.94511414 C154.39679072 29.40086068 154.44876195 34.85666781 154.5 40.3125 C154.55950754 46.59981255 154.62228433 52.88706684 154.69187927 59.17427635 C154.71812037 61.67820226 154.73914877 64.18213486 154.7598877 66.68611145 C154.74470591 96.65576585 154.74470591 96.65576585 169 122 C191.04211489 139.29762379 233.99576902 132.62492445 255 133 C255 184.48 255 235.96 255 289 C239.386875 289.020625 223.77375 289.04125 207.6875 289.0625 C202.77576904 289.071604 197.86403809 289.08070801 192.8034668 289.09008789 C186.75939941 289.09460449 186.75939941 289.09460449 183.92097473 289.09544373 C181.95812248 289.09696927 179.99527111 289.10046529 178.03242493 289.10557556 C164.39741793 289.13926903 151.3691774 288.90634291 138 286 C136.98679687 285.80664062 135.97359375 285.61328125 134.9296875 285.4140625 C120.80054267 282.62757222 106.8976343 278.45878441 94 272 C93.05253906 271.56171875 92.10507813 271.1234375 91.12890625 270.671875 C83.13847761 266.88966951 76.1406988 262.16394438 69 257 C67.92234375 256.24589844 66.8446875 255.49179688 65.734375 254.71484375 C64.22617188 253.64943359 64.22617188 253.64943359 62.6875 252.5625 C61.78386719 251.92441406 60.88023438 251.28632813 59.94921875 250.62890625 C58.98435547 249.82259766 58.98435547 249.82259766 58 249 C58 248.34 58 247.68 58 247 C57.4534375 246.77441406 56.906875 246.54882812 56.34375 246.31640625 C41.85607969 238.17916476 31.15382108 219.3532079 24 205 C23.57460937 204.20851563 23.14921875 203.41703125 22.7109375 202.6015625 C19.05180116 195.66491753 16.51537391 188.41511267 14 181 C13.71125 180.18402344 13.4225 179.36804687 13.125 178.52734375 C11.28008162 173.23281235 9.9300211 167.86331564 8.6484375 162.40625 C8.23236624 160.06611203 8.23236624 160.06611203 7 159 C6.64602072 157.02782972 6.3426225 155.04650815 6.0625 153.0625 C5.34781351 148.20792587 4.5238495 143.41048615 3.53125 138.60620117 C1.87111638 130.46193354 0.61239672 122.41155797 -0.0625 114.125 C-0.14048828 113.25359375 -0.21847656 112.3821875 -0.29882812 111.484375 C-0.56656873 108.32459336 -0.78901661 105.16409893 -1 102 C-1.04450287 101.35947693 -1.08900574 100.71895386 -1.13485718 100.059021 C-2.3304281 82.14981378 -2.18745123 64.19509634 -2.18530273 46.25537109 C-2.1851996 41.72623478 -2.19904494 37.19724994 -2.21607494 32.66814995 C-2.22715724 29.15779905 -2.2292234 25.6474859 -2.22869301 22.13711929 C-2.22987136 20.46494126 -2.23428499 18.79276219 -2.24202538 17.12060165 C-2.25178328 14.80278127 -2.24896821 12.48530596 -2.24291992 10.16748047 C-2.24434494 8.85182098 -2.24576996 7.5361615 -2.24723816 6.18063354 C-2 3 -2 3 0 0 Z " fill="#FEFEFF" transform="translate(1852,1975)"/>
<path d="M0 0 C1.45876016 0.0011956 2.91752111 0.00164416 4.37628174 0.00138855 C7.40162113 0.00293722 10.42683945 0.01111057 13.45214844 0.0246582 C17.33598362 0.04182967 21.21968886 0.0454665 25.10355759 0.04471302 C28.1008631 0.04498396 31.09814005 0.05044983 34.0954361 0.05771446 C35.52922602 0.06089908 36.96301917 0.06286806 38.39681244 0.06360817 C40.38532172 0.06576357 42.37381897 0.07528879 44.36230469 0.08520508 C46.05888214 0.09092278 46.05888214 0.09092278 47.78973389 0.09675598 C50.328125 0.23046875 50.328125 0.23046875 51.328125 1.23046875 C51.42488914 3.25541497 51.44999486 5.28379417 51.44837952 7.31105042 C51.44966115 8.27400863 51.44966115 8.27400863 51.45096868 9.25642055 C51.45262521 11.42300929 51.44709933 13.58952182 51.44165039 15.75610352 C51.44136853 17.30302936 51.44152623 18.84995534 51.4420929 20.3968811 C51.44238092 24.60950907 51.43648349 28.82210881 51.42951894 33.0347302 C51.42328612 37.43232663 51.42268166 41.82992364 51.42149353 46.2275238 C51.41838 54.56087388 51.41016632 62.8942109 51.40014404 71.22755522 C51.38898357 80.71228129 51.38347262 90.19700797 51.37844861 99.68173897 C51.36798373 119.19798964 51.35038387 138.71422815 51.328125 158.23046875 C49.80844116 158.2147583 49.80844116 158.2147583 48.25805664 158.19873047 C44.46170656 158.16224434 40.66537164 158.13946526 36.86889648 158.12060547 C35.23280217 158.11061258 33.59672541 158.09701368 31.96069336 158.07958984 C19.51175162 157.91625771 19.51175162 157.91625771 7.328125 160.23046875 C6.23886719 160.49085938 5.14960937 160.75125 4.02734375 161.01953125 C-7.14090664 164.11940879 -16.87414584 169.66329438 -23.671875 179.23046875 C-24.3525 180.13796875 -25.033125 181.04546875 -25.734375 181.98046875 C-29.73986813 188.69936045 -32.82577118 195.49367465 -34.27734375 203.19921875 C-34.671875 205.23046875 -34.671875 205.23046875 -35.671875 208.48046875 C-38.62269975 219.54606154 -38.9866682 230.62582259 -39.05078125 241.99609375 C-39.06699755 243.56696566 -39.0841817 245.13782784 -39.10227966 246.7086792 C-39.1474881 250.79831463 -39.18256002 254.88796372 -39.21447754 258.97772217 C-39.26684178 265.56421165 -39.33137835 272.15056072 -39.40269279 278.73686981 C-39.42552756 281.03308284 -39.4417807 283.32927741 -39.45741272 285.62554932 C-39.47080721 287.01892314 -39.48442093 288.41229489 -39.49829102 289.80566406 C-39.50780289 291.02554016 -39.51731476 292.24541626 -39.52711487 293.5022583 C-39.671875 296.23046875 -39.671875 296.23046875 -40.671875 297.23046875 C-42.64385038 297.32934687 -44.6194194 297.35679131 -46.59387207 297.35745239 C-48.52481468 297.36168213 -48.52481468 297.36168213 -50.49476624 297.36599731 C-51.934662 297.36405271 -53.37455764 297.36200453 -54.81445312 297.35986328 C-56.32034854 297.36121726 -57.82624361 297.36299718 -59.33213806 297.36517334 C-63.43326307 297.36974803 -67.53436304 297.36795797 -71.63548851 297.36479425 C-75.91784103 297.36227084 -80.20019134 297.36460814 -84.48254395 297.36618042 C-91.67537828 297.36800217 -98.86820237 297.36559567 -106.06103516 297.36083984 C-114.38903834 297.35539721 -122.71701704 297.35715987 -131.04501963 297.36266625 C-138.18215346 297.36719723 -145.3192799 297.367848 -152.4564147 297.36522758 C-156.72485855 297.36366472 -160.99329088 297.36347128 -165.26173401 297.36676407 C-169.27371434 297.36964256 -173.28566296 297.3676675 -177.29763985 297.36186981 C-178.77432261 297.36054209 -180.25100802 297.36093653 -181.72768974 297.36313248 C-183.73508487 297.36584349 -185.74248579 297.36184959 -187.74987793 297.35745239 C-188.87593193 297.35707537 -190.00198593 297.35669834 -191.16216278 297.35630989 C-193.671875 297.23046875 -193.671875 297.23046875 -194.671875 296.23046875 C-194.77252751 293.29092429 -194.80802138 290.37483933 -194.80126953 287.43481445 C-194.80302185 286.51106018 -194.80477417 285.58730591 -194.80657959 284.63555908 C-194.81100566 281.55910398 -194.80805438 278.48270576 -194.8046875 275.40625 C-194.80536107 273.26645395 -194.80633154 271.12665797 -194.80758667 268.98686218 C-194.80906526 264.48496782 -194.80690668 259.98309324 -194.80224609 255.48120117 C-194.79659326 249.74417927 -194.79979828 244.00720462 -194.80581856 238.27018452 C-194.8094581 233.84060826 -194.80826934 229.41104291 -194.80569077 224.98146629 C-194.80502852 222.8690204 -194.80582509 220.75657349 -194.80817032 218.6441288 C-194.82146521 203.27939696 -194.42336137 188.38777965 -191.671875 173.23046875 C-191.35365446 171.35838041 -191.03743982 169.48595057 -190.72265625 167.61328125 C-190.37254821 165.54815124 -190.0222861 163.48304735 -189.671875 161.41796875 C-189.42280396 159.93115601 -189.42280396 159.93115601 -189.16870117 158.41430664 C-188.27915312 153.23831721 -187.21818677 148.25902594 -185.671875 143.23046875 C-185.36507813 142.11027344 -185.05828125 140.99007813 -184.7421875 139.8359375 C-183.03595703 133.66671576 -181.21711069 127.67940869 -178.7265625 121.78125 C-177.95764372 119.92160568 -177.24046519 118.0403207 -176.5546875 116.1484375 C-174.07254087 109.3103669 -171.13144714 103.18393565 -167.3203125 96.984375 C-165.63165867 94.25167698 -165.63165867 94.25167698 -164.26171875 91.34375 C-162.37719364 87.65341459 -160.17749911 84.2842152 -157.859375 80.85546875 C-157.41722656 80.19861084 -156.97507812 79.54175293 -156.51953125 78.86499023 C-153.36982404 74.21007756 -150.22841834 69.58723434 -146.671875 65.23046875 C-146.011875 65.23046875 -145.351875 65.23046875 -144.671875 65.23046875 C-144.445 64.69421875 -144.218125 64.15796875 -143.984375 63.60546875 C-140.93233393 58.08272776 -136.59575508 54.13153993 -131.84765625 50.08984375 C-129.56184689 48.13644114 -127.33722822 46.12457933 -125.109375 44.10546875 C-115.12931663 35.23046875 -115.12931663 35.23046875 -111.671875 35.23046875 C-111.671875 34.57046875 -111.671875 33.91046875 -111.671875 33.23046875 C-109.47034108 31.7079695 -107.29023208 30.32901954 -104.984375 28.98046875 C-104.30173584 28.57787842 -103.61909668 28.17528809 -102.91577148 27.76049805 C-91.70638872 21.25085882 -79.84778017 16.56717356 -67.671875 12.23046875 C-66.70797852 11.88387207 -66.70797852 11.88387207 -65.72460938 11.53027344 C-56.81488218 8.34952813 -47.9553547 6.01923679 -38.671875 4.23046875 C-37.36476563 3.95589844 -37.36476563 3.95589844 -36.03125 3.67578125 C-33.58296526 3.16243122 -31.13065379 2.69098962 -28.671875 2.23046875 C-27.75613708 2.05855515 -26.84039917 1.88664154 -25.89691162 1.70951843 C-17.22983875 0.22466364 -8.77588916 -0.04817994 0 0 Z " fill="#FEFEFF" transform="translate(1747.671875,1525.76953125)"/>
<path d="M0 0 C51.15 0 102.3 0 155 0 C155.33 17.82 155.66 35.64 156 54 C158.02972968 79.23616296 158.02972968 79.23616296 170.25 100.3125 C196.68075099 116.53136993 223.78927658 110.4446427 256 111 C256 162.81 256 214.62 256 268 C240.551875 268.020625 225.10375 268.04125 209.1875 268.0625 C204.30735107 268.071604 199.42720215 268.08070801 194.39916992 268.09008789 C188.44592285 268.09460449 188.44592285 268.09460449 185.66011047 268.09544373 C183.71190666 268.09698062 181.7637038 268.10050037 179.81550598 268.10557556 C176.86681461 268.11287398 173.91818144 268.1139067 170.96948242 268.11352539 C169.66473481 268.11892255 169.66473481 268.11892255 168.33362865 268.12442875 C164.97040797 268.11858959 162.21318594 268.07106198 159 267 C157.61473226 266.81222272 156.22430981 266.66080428 154.83203125 266.53515625 C154.02056641 266.45716797 153.20910156 266.37917969 152.37304688 266.29882812 C150.6857381 266.14309635 148.99823995 265.98940093 147.31054688 265.83789062 C142.01936526 265.32503378 137.13085815 264.39296883 132 263 C131.07316406 262.78859375 130.14632812 262.5771875 129.19140625 262.359375 C114.97407578 259.06382737 101.85305154 253.86648352 89 247 C88.06929687 246.52949219 87.13859375 246.05898437 86.1796875 245.57421875 C72.82684466 238.6642199 61.74095441 229.38588154 51 219 C50.31164063 218.36320312 49.62328125 217.72640625 48.9140625 217.0703125 C43.89252823 212.32144073 39.71594893 206.82004469 36 201 C36 200.34 36 199.68 36 199 C35.34 199 34.68 199 34 199 C29.02116229 191.87820895 21 179.88862513 21 171 C20.34 171 19.68 171 19 171 C18.49339844 169.37191406 18.49339844 169.37191406 17.9765625 167.7109375 C17.52607249 166.26561539 17.07554993 164.82030343 16.625 163.375 C16.40328125 162.66214844 16.1815625 161.94929688 15.953125 161.21484375 C14.99457585 158.14184795 14.02672945 155.07843392 12.98828125 152.03125 C7.67309536 135.72854545 4.53776784 118.97812267 2.375 102 C2.2517334 101.07106934 2.1284668 100.14213867 2.00146484 99.18505859 C-1.90744428 66.68650709 0 32.15310902 0 0 Z " fill="#FFFFFF" transform="translate(2154,2009)"/>
<path d="M0 0 C1.71315226 0.00138269 1.71315226 0.00138269 3.46091366 0.00279331 C4.7664822 0.00141865 6.07205074 0.00004398 7.41718197 -0.00137234 C8.87755512 0.00216728 10.33792804 0.0058021 11.79830074 0.00952244 C13.3255224 0.0098043 14.8527442 0.0096466 16.37996578 0.00907993 C20.5388766 0.00879192 24.69775884 0.01468928 28.85666299 0.02165389 C33.19820497 0.02788677 37.53974753 0.02849118 41.8812933 0.0296793 C50.10839555 0.03279281 58.33548458 0.04100646 66.562581 0.05102879 C75.92639037 0.06218932 85.29020035 0.06770022 94.65401471 0.07272422 C113.92143722 0.08318906 133.18884741 0.10078888 152.45625973 0.12304783 C152.47912841 37.03328888 152.49675913 73.94352886 152.50732506 110.85377555 C152.50857582 115.20736763 152.50987014 119.56095968 152.51119137 123.91455173 C152.51158483 125.21468223 152.51158483 125.21468223 152.51198625 126.54107799 C152.51634235 140.59149101 152.52422958 154.64189996 152.53341252 168.69231056 C152.54275071 183.09997806 152.54831569 197.50764343 152.55034822 211.91531384 C152.5517231 220.81184516 152.55607183 229.70836497 152.56417619 238.60489275 C152.56944568 244.69835796 152.57106356 250.79181719 152.5697611 256.88528453 C152.56911805 260.4054534 152.57013166 263.92560209 152.5754652 267.4457674 C152.58119464 271.25485831 152.57925855 275.06392255 152.57651424 278.87301731 C152.58088351 280.5568413 152.58088351 280.5568413 152.58534104 282.27468193 C152.58334999 283.28884874 152.58135894 284.30301555 152.57930756 285.3479147 C152.57968728 286.22810642 152.580067 287.10829815 152.58045822 288.01516235 C152.45625973 290.12304783 152.45625973 290.12304783 151.45625973 292.12304783 C100.63625973 292.12304783 49.81625973 292.12304783 -2.54374027 292.12304783 C-3.76741795 289.67569247 -3.66907456 288.10305382 -3.66958141 285.36632538 C-3.67218916 284.35625866 -3.67479691 283.34619194 -3.67748368 282.30551714 C-3.67525296 281.18754088 -3.67302223 280.06956463 -3.67072392 278.9177103 C-3.67228391 277.73656039 -3.6738439 276.55541047 -3.67545116 275.33846813 C-3.67876077 272.04984258 -3.67755457 268.76127376 -3.67446494 265.4726516 C-3.6722104 261.93002855 -3.67569071 258.3874106 -3.67844486 254.84478855 C-3.68290083 247.9010763 -3.6819269 240.95737483 -3.67903222 234.01366215 C-3.67677769 228.37298449 -3.67646588 222.73230987 -3.67755604 217.09163189 C-3.67770927 216.29011219 -3.6778625 215.4885925 -3.67802038 214.66278433 C-3.67834009 213.03474012 -3.6786643 211.40669592 -3.67899297 209.77865172 C-3.68184721 194.49848152 -3.67856153 179.21831731 -3.67319261 163.93814809 C-3.66872376 150.81301076 -3.66950127 137.68788227 -3.67411137 124.56274509 C-3.67945665 109.33726848 -3.68157342 94.11179712 -3.6784991 78.8863197 C-3.67818054 77.26442913 -3.67786617 75.64253857 -3.67755604 74.020648 C-3.67740176 73.22255082 -3.67724749 72.42445364 -3.67708854 71.6021717 C-3.67622331 65.96453621 -3.67768637 60.32690404 -3.68003559 54.68926907 C-3.68283324 47.82432617 -3.68209603 40.95939472 -3.67675485 34.09445315 C-3.67411749 30.58857264 -3.67311335 27.08271125 -3.676404 23.57683086 C-3.67990935 19.78501022 -3.67573854 15.99322122 -3.67072392 12.20140171 C-3.67295464 11.08119473 -3.67518536 9.96098776 -3.67748368 8.80683511 C-3.67357206 7.29564666 -3.67357206 7.29564666 -3.66958141 5.75392914 C-3.66941906 4.8774796 -3.66925671 4.00103006 -3.66908944 3.09802145 C-3.4773772 0.07744597 -3.04186793 0.14714366 0 0 Z " fill="#FEFEFF" transform="translate(1853.543740272522,1530.8769521713257)"/>
<path d="M0 0 C50.82 0 101.64 0 154 0 C155.33638318 2.67276636 155.1271426 4.71565514 155.12939453 7.70874023 C155.13254669 8.9085704 155.13569885 10.10840057 155.13894653 11.34458923 C155.13591019 13.30677147 155.13591019 13.30677147 155.1328125 15.30859375 C155.13348707 16.67269406 155.13445836 18.03679426 155.13571167 19.40089417 C155.13718991 22.27516818 155.13503569 25.14941122 155.13037109 28.02368164 C155.12476512 31.64934327 155.12789261 35.27492938 155.13394356 38.90058804 C155.13762504 41.72964505 155.13637507 44.55868536 155.13381577 47.387743 C155.13285042 49.35626907 155.13581808 51.32479588 155.13894653 53.2933197 C155.1216375 60.17603813 154.91462658 67.0037637 154.50949097 73.87251282 C153.99032582 83.2331529 153.80065671 92.57502769 153.71875 101.94824219 C153.70087402 103.64769866 153.68263328 105.34715132 153.6640625 107.04660034 C153.62524814 110.66449865 153.58885744 114.28240967 153.55444336 117.90035248 C153.49968153 123.64628407 153.43872403 129.39214057 153.37695312 135.13800049 C153.24660457 147.34195334 153.12302848 159.54597151 153 171.75 C152.86712704 184.91966963 152.73288018 198.0893196 152.59148407 211.25890088 C152.54050687 216.02406929 152.49109958 220.78924256 152.44555664 225.55446625 C152.11859012 259.6983794 152.11859012 259.6983794 151.53125 273.81738281 C151.49390747 274.73627666 151.45656494 275.65517052 151.41809082 276.60190964 C151.25786156 279.93763955 151.06140653 282.8157804 150 286 C99.18 286 48.36 286 -4 286 C-4.020625 272.078125 -4.04125 258.15625 -4.0625 243.8125 C-4.071604 239.46167236 -4.08070801 235.11084473 -4.09008789 230.62817383 C-4.09460449 225.20056152 -4.09460449 225.20056152 -4.09544373 222.63749695 C-4.09695159 220.89591718 -4.10040858 219.15433826 -4.10557556 217.4127655 C-4.13158566 208.16075733 -4.04486714 198.95083711 -3.52514648 189.71240234 C-2.62995438 173.29390704 -2.68208886 156.8352671 -2.52767944 140.39707017 C-2.48083065 135.52669666 -2.42871758 130.65637984 -2.37695312 125.78605652 C-2.22454497 111.35749142 -2.08027074 96.92884644 -1.9375 82.50018311 C-1.82586524 71.22804781 -1.71202438 59.95594408 -1.59148407 48.68390006 C-1.5298306 42.89484934 -1.47278109 37.10577706 -1.41920471 31.31664622 C-1.38507085 27.73396543 -1.3469141 24.15133594 -1.30761719 20.56870842 C-1.29018745 18.90377615 -1.27445146 17.2388252 -1.26049805 15.57386017 C-1.24129198 13.30944584 -1.21613994 11.04517467 -1.18945312 8.78083801 C-1.17066101 6.87768939 -1.17066101 6.87768939 -1.15148926 4.93609333 C-1 2 -1 2 0 0 Z " fill="#FEFEFF" transform="translate(1552,1975)"/>
<path d="M0 0 C50.82 0 101.64 0 154 0 C154.04030303 53.55825436 154.04030303 53.55825436 154.04882812 76.25 C154.05472871 91.82943049 154.06160994 107.40885551 154.07543945 122.98828125 C154.08551289 134.34192424 154.09188301 145.69556274 154.09408849 157.04921007 C154.09537448 163.04204395 154.09832221 169.034865 154.10573006 175.0276947 C154.1126919 180.70759281 154.11457767 186.38747322 154.11310768 192.06737518 C154.11337523 194.1146479 154.11525756 196.16192144 154.11920547 198.20919037 C154.15689327 218.82499488 153.51559749 239.37610041 153 260 C101.85 260 50.7 260 -2 260 C-2.020625 235.1675 -2.04125 210.335 -2.0625 184.75 C-2.071604 177.0887793 -2.08070801 169.42755859 -2.09008789 161.53417969 C-2.11336173 127.90384778 -2.02618949 94.27901119 -1.59018397 60.65116215 C-1.5591648 58.24737743 -1.52921562 55.84358118 -1.49940681 53.43978119 C-1.45190963 49.65986369 -1.40000045 45.8800294 -1.344661 42.10021877 C-1.31601581 40.11450878 -1.28999487 38.12876142 -1.26415062 36.143013 C-1.0735147 24.07533291 -0.50307607 12.07382569 0 0 Z " fill="#FFFFFF" transform="translate(2155,1531)"/>
<path d="M0 0 C0 0.66 0 1.32 0 2 C0.598125 2.0825 1.19625 2.165 1.8125 2.25 C4.83344673 3.28575316 5.56379299 4.12758598 7 7 C7.80928936 12.75251627 7.08603896 16.98518669 4 22 C3.34 22 2.68 22 2 22 C1.855625 22.969375 1.71125 23.93875 1.5625 24.9375 C1 28 1 28 0 29 C-0.23927796 31.42232013 -0.42301907 33.82165995 -0.5625 36.25 C-0.60568359 36.91902344 -0.64886719 37.58804687 -0.69335938 38.27734375 C-0.91485998 41.85651221 -1.04864458 45.41419932 -1 49 C-0.34 49 0.32 49 1 49 C1.680625 50.2065625 1.680625 50.2065625 2.375 51.4375 C3.68888014 54.06788527 3.68888014 54.06788527 5.66796875 54.65234375 C15.51840479 56.12083421 26.15397 54.92981059 36 54 C35.96519531 53.3709375 35.93039062 52.741875 35.89453125 52.09375 C35.49521163 39.46764378 41.30964725 32.30810357 49 23 C49.84498047 21.92685547 49.84498047 21.92685547 50.70703125 20.83203125 C53.21104786 17.92792383 55.01415418 16.99646146 58.75 16.0625 C65.87603301 16.58224905 71.07471293 23.93719243 75.625 28.8125 C78.28066783 31.25850984 80.87155005 32.61442463 84.1328125 34.10546875 C88.82313534 36.35250626 90.03570886 38.67721337 92.125 43.3125 C92.64320313 44.44300781 93.16140625 45.57351563 93.6953125 46.73828125 C96.07537475 52.68843687 96.15438572 58.04727575 96.125 64.375 C96.12886719 65.2 96.13273438 66.025 96.13671875 66.875 C96.11695754 79.32456369 96.11695754 79.32456369 93 84 C92.34 84 91.68 84 91 84 C90.62875 84.9590625 90.62875 84.9590625 90.25 85.9375 C89 88 89 88 86.875 88.75 C86.25625 88.8325 85.6375 88.915 85 89 C85 89.66 85 90.32 85 91 C84.2793335 90.98839844 83.55866699 90.97679687 82.81616211 90.96484375 C79.52215876 90.93520381 76.23144818 90.96707881 72.9375 91 C71.2369043 90.97099609 71.2369043 90.97099609 69.50195312 90.94140625 C63.185333 90.97715016 63.185333 90.97715016 57.69970703 93.7421875 C55.92681059 95.74996859 54.43177202 97.73950987 53 100 C52.34 100.99 51.68 101.98 51 103 C50.76883607 104.91535826 50.5408896 106.8312466 50.33984375 108.75 C49.23410393 116.07076021 46.36762666 123.46719009 41.3125 128.875 C37.33162218 131.42877068 34.53685339 131.87553311 30 131 C20.81762546 128.22643819 20.81762546 128.22643819 18 124 C14.02974287 124.5541525 11.60389975 125.71572235 8.375 128.0625 C4.32470588 131 4.32470588 131 1 131 C1 131.66 1 132.32 1 133 C-3.22638238 133.61634743 -6.61961804 133.88989091 -10.30859375 131.51171875 C-12.30112413 129.74586155 -14.17345027 127.93605511 -16 126 C-16.66 125.34 -17.32 124.68 -18 124 C-18.6890301 122.3424537 -19.35330663 120.67451781 -20 119 C-20.80165244 117.47342093 -21.61452769 115.95269202 -22.4375 114.4375 C-29.42410252 100.52612331 -29.23449134 84.98611537 -29.25 69.75 C-29.25100708 69.05667572 -29.25201416 68.36335144 -29.25305176 67.64901733 C-29.23139545 45.41339877 -28.88244905 20.59886603 -12.875 3.5 C-8.63007608 -0.19123819 -5.52368021 -0.12553819 0 0 Z " fill="#03CCFF" transform="translate(517,1557)"/>
<path d="M0 0 C-1.61472788 1.9178711 -2.58646411 2.89761188 -5.05297852 3.50830078 C-6.20431274 3.60087158 -6.20431274 3.60087158 -7.37890625 3.6953125 C-8.21744141 3.77136719 -9.05597656 3.84742188 -9.91992188 3.92578125 C-10.79197266 3.99152344 -11.66402344 4.05726562 -12.5625 4.125 C-14.29324476 4.27018389 -16.02373271 4.41847279 -17.75390625 4.5703125 C-18.52033447 4.62977051 -19.2867627 4.68922852 -20.07641602 4.75048828 C-22.0804286 4.90336255 -22.0804286 4.90336255 -24 6 C-26.6723621 6.13415472 -29.32250488 6.04318541 -32 6 C-32 5.67 -32 5.34 -32 5 C-30.96101563 4.80664062 -29.92203125 4.61328125 -28.8515625 4.4140625 C-27.4427041 4.15106432 -26.03385024 3.88804185 -24.625 3.625 C-23.89490723 3.48924561 -23.16481445 3.35349121 -22.41259766 3.21362305 C-18.38839002 2.46169651 -14.37911844 1.66613875 -10.375 0.8125 C-6.86628042 0.09534617 -3.59548926 -0.18923628 0 0 Z " fill="#93E9FF" transform="translate(2619,1822)"/>
<path d="M0 0 C-1.57373592 3.80172161 -3.97621642 6.24341988 -6.875 9.125 C-7.73867187 9.99382812 -8.60234375 10.86265625 -9.4921875 11.7578125 C-11.64788374 13.68517954 -13.35514153 14.90515161 -16 16 C-14.33536962 11.71357676 -11.20924163 8.91382783 -8 5.75 C-7.4534375 5.19570312 -6.906875 4.64140625 -6.34375 4.0703125 C-2.2533867 0 -2.2533867 0 0 0 Z " fill="#BFF2FF" transform="translate(2513,1865)"/>
<path d="M0 0 C4.62561811 6.93842717 5.43494403 13.88415755 5.1875 22.0625 C5.17396484 22.92810547 5.16042969 23.79371094 5.14648438 24.68554688 C5.1115933 26.79064174 5.05780665 28.89540974 5 31 C4.67 31 4.34 31 4 31 C3.96261719 29.97261719 3.92523437 28.94523437 3.88671875 27.88671875 C3.55073555 20.35850992 2.96574458 13.45904072 0.62109375 6.234375 C0 4 0 4 0 0 Z " fill="#62DFFF" transform="translate(608,1600)"/>
<path d="M0 0 C0 0.33 0 0.66 0 1 C-1.010625 1 -2.02125 1 -3.0625 1 C-6.82771018 1.49542239 -8.29051735 3.0683844 -10.6875 5.9375 C-11.22761719 6.64777344 -11.76773438 7.35804687 -12.32421875 8.08984375 C-14.0869771 10.09914173 -15.553456 10.98193921 -18 12 C-13.1228599 4.12154291 -9.87236182 -1.02127881 0 0 Z " fill="#44D9FF" transform="translate(580,1574)"/>
<path d="M0 0 C0.66 0.33 1.32 0.66 2 1 C0.71520959 2.50589388 -0.57804082 4.00457375 -1.875 5.5 C-2.95394531 6.75296875 -2.95394531 6.75296875 -4.0546875 8.03125 C-4.69664062 8.6809375 -5.33859375 9.330625 -6 10 C-6.66 10 -7.32 10 -8 10 C-6.34908222 5.70761377 -3.26245434 3.1206085 0 0 Z " fill="#41D8FF" transform="translate(507,1558)"/>
</svg>
